<?xml version="1.0" encoding="UTF-8"?>
<svg version="1.1" xmlns="http://www.w3.org/2000/svg" width="360" height="360">
<path d="M0 0 C2.95973293 2.74282579 5.06581955 5.66557685 7.125 9.125 C7.77726563 8.71507812 8.42953125 8.30515625 9.1015625 7.8828125 C21.3388057 0.33831743 34.03132446 -1.83928093 48.1875 1.25 C58.17690827 4.01908468 67.08282389 9.70265928 72.6640625 18.5703125 C73.87659162 20.73118842 75.0311788 22.90207305 76.125 25.125 C77.135625 24.34125 78.14625 23.5575 79.1875 22.75 C84.83345044 18.37150782 91.31162625 17.82549428 98.2421875 17.89453125 C99.00869125 17.89449097 99.77519501 17.89445068 100.56492615 17.89440918 C103.0434633 17.89778387 105.52155295 17.91661799 108 17.9375 C109.71248284 17.94637889 111.42496659 17.95508547 113.13745117 17.96362305 C118.13365579 17.99494527 123.12922219 18.05344195 128.125 18.125 C128.82034851 18.13466797 129.51569702 18.14433594 130.2321167 18.15429688 C134.30188934 18.21480457 138.36922914 18.31247263 142.4375 18.4375 C143.40606934 18.45981689 144.37463867 18.48213379 145.37255859 18.50512695 C153.80545001 18.8379054 161.34995144 20.44899451 167.6171875 26.41015625 C172.60378156 32.0814381 173.85982303 37.5918656 173.56640625 45.09765625 C172.4495237 52.75769144 168.50148101 59.01604457 162.44921875 63.79296875 C156.57698583 67.15839972 149.73166695 67.10978815 143.1171875 67.21875 C135.48329914 67.34679831 135.48329914 67.34679831 128.125 69.125 C124.67491581 73.10547027 123.24710737 77.01797288 122.125 82.125 C122.93324219 82.35574219 123.74148438 82.58648437 124.57421875 82.82421875 C135.53130446 86.16817856 135.53130446 86.16817856 139.125 91.125 C140.24628794 94.44517729 140.29070885 97.63841579 140.3125 101.125 C140.32667969 102.15625 140.34085937 103.1875 140.35546875 104.25 C140.11490629 107.2509147 139.84964115 108.68343686 138.125 111.125 C135.6418457 111.91357422 135.6418457 111.91357422 132.48828125 112.3046875 C131.31475098 112.45131836 130.1412207 112.59794922 128.93212891 112.74902344 C122.39860535 113.39424764 115.86625042 113.88068737 109.3125 114.25 C108.24024673 114.31204117 108.24024673 114.31204117 107.14633179 114.37533569 C60.34883629 117.0471189 60.34883629 117.0471189 52.33203125 110.70703125 C49.85554379 107.46114963 50.01646371 104.35058465 50.0625 100.4375 C50.07152344 99.44363281 50.08054688 98.44976562 50.08984375 97.42578125 C50.10144531 96.66652344 50.11304688 95.90726562 50.125 95.125 C48.94164062 95.14820313 47.75828125 95.17140625 46.5390625 95.1953125 C19.94437648 95.56683314 19.94437648 95.56683314 10.8671875 86.9921875 C10.29226562 86.37601562 9.71734375 85.75984375 9.125 85.125 C9.11082031 86.42695313 9.09664062 87.72890625 9.08203125 89.0703125 C9.03511285 90.79690966 8.98686556 92.52347107 8.9375 94.25 C8.92879883 95.53390625 8.92879883 95.53390625 8.91992188 96.84375 C8.76760106 101.24412909 8.37729033 103.70307446 6.07421875 107.5546875 C0.49704259 112.41532579 -5.61486846 113.54594047 -12.875 114.25 C-13.97739014 114.36565308 -13.97739014 114.36565308 -15.10205078 114.48364258 C-17.35855306 114.71238457 -19.61611864 114.92123236 -21.875 115.125 C-22.5462793 115.18961426 -23.21755859 115.25422852 -23.90917969 115.32080078 C-36.11678813 116.46241005 -48.49715776 116.34911995 -60.64453125 114.57421875 C-63.40913544 114.18978165 -65.73567732 114.13179339 -68.5 114.3125 C-76.61466651 114.39935423 -86.9672004 111.87733119 -92.875 106.125 C-96.84934235 99.23104461 -96.57021761 90.8265665 -95.875 83.125 C-95.27365782 81.1043981 -94.62537973 79.09512048 -93.875 77.125 C-95.45087891 76.76148438 -95.45087891 76.76148438 -97.05859375 76.390625 C-119.20706501 71.16757631 -119.20706501 71.16757631 -126.875 60.125 C-129.89382298 52.82951113 -129.3812926 46.00383991 -126.9765625 38.62109375 C-124.19789718 32.32475638 -119.41907008 27.54907938 -113.07151794 24.87510681 C-106.22143474 22.53581608 -98.51949978 22.98706517 -91.37109375 23.02734375 C-90.4072023 23.0287587 -89.44331085 23.03017365 -88.45021057 23.03163147 C-85.40427402 23.03718058 -82.35841393 23.04972331 -79.3125 23.0625 C-77.23372503 23.06752159 -75.15494889 23.07208334 -73.07617188 23.07617188 C-68.00908561 23.08713329 -62.94205572 23.1043622 -57.875 23.125 C-57.73255859 21.86494141 -57.59011719 20.60488281 -57.44335938 19.30664062 C-56.4284194 10.32832545 -51.00419791 3.32055836 -44.171875 -2.28515625 C-31.40396638 -11.12280728 -11.92017615 -9.62200659 0 0 Z M-18.875 67.125 C-18.875 67.785 -18.875 68.445 -18.875 69.125 C-10.46 68.63 -10.46 68.63 -1.875 68.125 C-2.205 67.465 -2.535 66.805 -2.875 66.125 C-8.33637814 66.02747539 -13.46755982 66.35250855 -18.875 67.125 Z " fill="#CB8895" transform="translate(150.875,122.875)"/>
<path d="M0 0 C1.70840281 1.63412443 2.93453047 2.86906094 4 5 C4.99 5.33 5.98 5.66 7 6 C8.6875 8.0625 8.6875 8.0625 10 10 C11.2684375 8.824375 11.2684375 8.824375 12.5625 7.625 C17.66234683 2.89831269 24.49605743 2.70357659 31.1171875 2.76953125 C31.88369125 2.76949097 32.65019501 2.76945068 33.43992615 2.76940918 C35.9184633 2.77278387 38.39655295 2.79161799 40.875 2.8125 C42.58748284 2.82137889 44.29996659 2.83008547 46.01245117 2.83862305 C51.00865579 2.86994527 56.00422219 2.92844195 61 3 C61.69534851 3.00966797 62.39069702 3.01933594 63.1071167 3.02929688 C67.17688934 3.08980457 71.24422914 3.18747263 75.3125 3.3125 C76.28106934 3.33481689 77.24963867 3.35713379 78.24755859 3.38012695 C86.68045001 3.7129054 94.22495144 5.32399451 100.4921875 11.28515625 C105.47878156 16.9564381 106.73482303 22.4668656 106.44140625 29.97265625 C105.3245237 37.63269144 101.37648101 43.89104457 95.32421875 48.66796875 C89.45198583 52.03339972 82.60666695 51.98478815 75.9921875 52.09375 C68.35829914 52.22179831 68.35829914 52.22179831 61 54 C57.54991581 57.98047027 56.12210737 61.89297288 55 67 C55.80824219 67.23074219 56.61648438 67.46148437 57.44921875 67.69921875 C68.40630446 71.04317856 68.40630446 71.04317856 72 76 C73.12128794 79.32017729 73.16570885 82.51341579 73.1875 86 C73.20167969 87.03125 73.21585937 88.0625 73.23046875 89.125 C72.98990629 92.1259147 72.72464115 93.55843686 71 96 C68.5168457 96.78857422 68.5168457 96.78857422 65.36328125 97.1796875 C64.18975098 97.32631836 63.0162207 97.47294922 61.80712891 97.62402344 C55.27360535 98.26924764 48.74125042 98.75568737 42.1875 99.125 C41.47266449 99.16636078 40.75782898 99.20772156 40.02133179 99.25033569 C-6.77616371 101.9221189 -6.77616371 101.9221189 -14.79296875 95.58203125 C-17.26945621 92.33614963 -17.10853629 89.22558465 -17.0625 85.3125 C-17.05347656 84.31863281 -17.04445312 83.32476562 -17.03515625 82.30078125 C-17.02355469 81.54152344 -17.01195312 80.78226562 -17 80 C-18.11375 80.04125 -19.2275 80.0825 -20.375 80.125 C-24 80 -24 80 -26 78 C-24.98679688 77.60167969 -24.98679688 77.60167969 -23.953125 77.1953125 C-23.06109375 76.84210938 -22.1690625 76.48890625 -21.25 76.125 C-20.36828125 75.77695313 -19.4865625 75.42890625 -18.578125 75.0703125 C-17.72734375 74.71710938 -16.8765625 74.36390625 -16 74 C-15.2471875 73.690625 -14.494375 73.38125 -13.71875 73.0625 C-11.62299569 72.0458324 -11.62299569 72.0458324 -11.25 68.875 C-11.1675 67.92625 -11.085 66.9775 -11 66 C-10.34 66 -9.68 66 -9 66 C-9 65.34 -9 64.68 -9 64 C-8.01 63.505 -8.01 63.505 -7 63 C-6.66073053 60.66752239 -6.32759934 58.33414529 -6 56 C-5.34 55.34 -4.68 54.68 -4 54 C-3.01 54 -2.02 54 -1 54 C0.91475731 40.30092329 0.79245381 27.44259798 -3.125 14.125 C-4 11 -4 11 -4 8 C-4.66 8 -5.32 8 -6 8 C-6 7.34 -6 6.68 -6 6 C-5.01 6 -4.02 6 -3 6 C-2.01 4.02 -1.02 2.04 0 0 Z " fill="#D2B174" transform="translate(218,138)"/>
<path d="M0 0 C3.27736557 3.10167175 5.67773897 5.76889707 6.89453125 10.23046875 C5.57453125 9.90046875 4.25453125 9.57046875 2.89453125 9.23046875 C2.39953125 7.25046875 2.39953125 7.25046875 1.89453125 5.23046875 C0.90453125 6.71546875 0.90453125 6.71546875 -0.10546875 8.23046875 C-1.09546875 9.71546875 -1.09546875 9.71546875 -2.10546875 11.23046875 C-3.59046875 10.73546875 -3.59046875 10.73546875 -5.10546875 10.23046875 C-5.10546875 10.89046875 -5.10546875 11.55046875 -5.10546875 12.23046875 C-4.44546875 12.23046875 -3.78546875 12.23046875 -3.10546875 12.23046875 C-0.06100676 21.94012789 2.38106703 31.18072877 2.33203125 41.41796875 C2.32945312 42.18214111 2.326875 42.94631348 2.32421875 43.73364258 C2.19057262 48.81386626 1.41604674 53.37456825 -0.10546875 58.23046875 C-1.43067378 58.91315013 -2.76359057 59.58117285 -4.10546875 60.23046875 C-4.9241706 63.79253536 -4.9241706 63.79253536 -5.10546875 67.23046875 C-6.59046875 67.72546875 -6.59046875 67.72546875 -8.10546875 68.23046875 C-8.10546875 68.89046875 -8.10546875 69.55046875 -8.10546875 70.23046875 C-8.76546875 70.23046875 -9.42546875 70.23046875 -10.10546875 70.23046875 C-10.14671875 71.13796875 -10.18796875 72.04546875 -10.23046875 72.98046875 C-11.10546875 76.23046875 -11.10546875 76.23046875 -13.79296875 78.48046875 C-16.86890581 80.1054921 -19.76641948 81.27645467 -23.10546875 82.23046875 C-23.10546875 82.89046875 -23.10546875 83.55046875 -23.10546875 84.23046875 C-33.6744061 84.59214341 -43.81900553 83.75898576 -53.10546875 78.23046875 C-54.42546875 76.91046875 -55.74546875 75.59046875 -57.10546875 74.23046875 C-57.43546875 79.51046875 -57.76546875 84.79046875 -58.10546875 90.23046875 C-58.43546875 90.23046875 -58.76546875 90.23046875 -59.10546875 90.23046875 C-59.10546875 83.30046875 -59.10546875 76.37046875 -59.10546875 69.23046875 C-60.59046875 68.73546875 -60.59046875 68.73546875 -62.10546875 68.23046875 C-65.10546875 63.00824653 -65.10546875 63.00824653 -65.10546875 60.23046875 C-72.36546875 60.23046875 -79.62546875 60.23046875 -87.10546875 60.23046875 C-86.44546875 58.91046875 -85.78546875 57.59046875 -85.10546875 56.23046875 C-85.10546875 56.89046875 -85.10546875 57.55046875 -85.10546875 58.23046875 C-79.82546875 57.57046875 -74.54546875 56.91046875 -69.10546875 56.23046875 C-70.42546875 55.57046875 -71.74546875 54.91046875 -73.10546875 54.23046875 C-71.78546875 54.23046875 -70.46546875 54.23046875 -69.10546875 54.23046875 C-69.32203125 53.54984375 -69.53859375 52.86921875 -69.76171875 52.16796875 C-73.87313151 37.85416137 -73.58830008 23.69260609 -66.57421875 10.30859375 C-65.15095889 7.8946334 -63.67399062 5.55188112 -62.10546875 3.23046875 C-60.16748612 0.45786576 -60.16748612 0.45786576 -59.10546875 -1.76953125 C-41.01771173 -14.30492595 -17.18162962 -14.44021933 0 0 Z " fill="#D3CDD6" transform="translate(217.10546875,133.76953125)"/>
<path d="M0 0 C3.03135409 2.84590655 5.33899923 5.46788073 7.125 9.25 C7.03733643 13.10719716 5.14524159 14.69473292 2.76171875 17.6171875 C-3.04967637 25.76650019 -5.13418542 34.98869539 -5.125 44.8125 C-5.1259668 45.87936035 -5.1259668 45.87936035 -5.12695312 46.96777344 C-5.07611687 52.0074945 -4.41041378 56.21303021 -2.9375 61 C-2.9375 62.32 -2.9375 63.64 -2.9375 65 C-8.77549592 66.69832609 -13.86857371 67.25287193 -19.9375 67 C-20.205625 67.61875 -20.47375 68.2375 -20.75 68.875 C-21.9375 71 -21.9375 71 -24.9375 73 C-26.94498888 72.71522022 -28.94390237 72.36970205 -30.9375 72 C-34.15052604 71.84266157 -37.36172858 71.85977407 -40.578125 71.8671875 C-41.50034851 71.86623077 -42.42257202 71.86527405 -43.3727417 71.86428833 C-45.31929594 71.86360977 -47.26585249 71.86544139 -49.21240234 71.86962891 C-52.16378989 71.87495719 -55.11502356 71.86968552 -58.06640625 71.86328125 C-59.96614616 71.86394257 -61.86588598 71.86522483 -63.765625 71.8671875 C-65.07083099 71.86415115 -65.07083099 71.86415115 -66.40240479 71.86105347 C-72.29954093 71.88316261 -78.08099906 72.3148435 -83.9375 73 C-88.6088175 60.81395436 -90.23515598 46.69307695 -85.9375 34 C-83.9911604 30.42022008 -81.83527735 26.89777735 -78.9375 24 C-77.37577255 23.91314397 -75.81020656 23.89297781 -74.24609375 23.90234375 C-73.30185547 23.90556641 -72.35761719 23.90878906 -71.38476562 23.91210938 C-70.39154297 23.92048828 -69.39832031 23.92886719 -68.375 23.9375 C-67.37791016 23.94201172 -66.38082031 23.94652344 -65.35351562 23.95117188 C-62.88145151 23.96299993 -60.40950482 23.97948151 -57.9375 24 C-57.89431641 23.41484619 -57.85113281 22.82969238 -57.80664062 22.22680664 C-56.97181993 12.8973024 -53.42976803 5.97519217 -46.5625 -0.5 C-33.60832642 -11.12850819 -12.88803033 -10.62791646 0 0 Z " fill="#8373B8" transform="translate(150.9375,123)"/>
<path d="M0 0 C1.91619141 0.08314453 1.91619141 0.08314453 3.87109375 0.16796875 C8.03483873 0.89497184 10.29174608 2.17731859 13.5625 4.8125 C16.48662447 10.12908994 16.12344399 16.8895914 15.5625 22.8125 C14.89819336 24.9140625 14.89819336 24.9140625 13.5625 26.8125 C11.0793457 27.60107422 11.0793457 27.60107422 7.92578125 27.9921875 C6.75225098 28.13881836 5.5787207 28.28544922 4.36962891 28.43652344 C-2.16395863 29.08175396 -8.69629952 29.56679874 -15.25 29.9375 C-15.96117981 29.97919312 -16.67235962 30.02088623 -17.40509033 30.06384277 C-27.03825925 30.62237321 -36.66129969 31.01306428 -46.3125 31.0625 C-47.30354736 31.07168457 -48.29459473 31.08086914 -49.31567383 31.09033203 C-50.6714856 31.08428955 -50.6714856 31.08428955 -52.0546875 31.078125 C-53.22427002 31.07474121 -53.22427002 31.07474121 -54.41748047 31.07128906 C-56.4375 30.8125 -56.4375 30.8125 -59.4375 28.8125 C-56.7975 28.8125 -54.1575 28.8125 -51.4375 28.8125 C-51.4375 27.8225 -51.4375 26.8325 -51.4375 25.8125 C-53.4175 26.4725 -55.3975 27.1325 -57.4375 27.8125 C-57.4375 27.1525 -57.4375 26.4925 -57.4375 25.8125 C-58.46875 26.01875 -59.5 26.225 -60.5625 26.4375 C-64.68925948 26.83686382 -66.81969526 26.83173985 -70.4375 24.8125 C-71.9375 21.375 -71.9375 21.375 -72.4375 17.8125 C-71.4475 16.3275 -71.4475 16.3275 -70.4375 14.8125 C-70.4375 14.1525 -70.4375 13.4925 -70.4375 12.8125 C-69.1175 13.1425 -67.7975 13.4725 -66.4375 13.8125 C-66.7675 12.8225 -67.0975 11.8325 -67.4375 10.8125 C-66.550625 10.255625 -65.66375 9.69875 -64.75 9.125 C-62.41571841 7.58349329 -60.77128397 6.14628397 -58.75 4.125 C-56.3587961 1.7337961 -54.93477143 0.90273945 -51.55386353 0.69897461 C-50.49393692 0.70682983 -50.49393692 0.70682983 -49.41259766 0.71484375 C-48.60811188 0.71814697 -47.8036261 0.7214502 -46.97476196 0.72485352 C-45.67627823 0.73730103 -45.67627823 0.73730103 -44.3515625 0.75 C-43.01066055 0.75567993 -43.01066055 0.75567993 -41.64266968 0.76147461 C-37.81738716 0.77782429 -33.99221129 0.8059152 -30.16699219 0.83300781 C-27.374354 0.85111089 -24.58173328 0.86319578 -21.7890625 0.875 C-20.92745514 0.88329834 -20.06584778 0.89159668 -19.1781311 0.90014648 C-12.66200074 0.92669371 -6.52184267 -0.34809432 0 0 Z " fill="#879B7A" transform="translate(275.4375,207.1875)"/>
<path d="M0 0 C0.99 0 1.98 0 3 0 C4.81242323 4.0188515 6.33501617 7.61110675 7 12 C8.25074869 9.10902466 8.25074869 9.10902466 7.4375 6.5 C7 4 7 4 9 1 C14.202632 0.03231045 19.1491882 1.05967528 24 3 C25.98014432 3.72351427 27.97821315 4.40265389 30 5 C30.66 4.67 31.32 4.34 32 4 C35.98135808 5.15249839 38.24833565 6.94259517 41 10 C41.66 9.67 42.32 9.34 43 9 C43 10.65 43 12.3 43 14 C44.87880872 13.95231597 44.87880872 13.95231597 47 13 C48.38123963 11.03277992 49.71488126 9.03131672 51 7 C51.99 6.34 52.98 5.68 54 5 C54.10696872 9.59965514 54.0887918 13.82241639 52 18 C52.63808594 17.98839844 53.27617187 17.97679687 53.93359375 17.96484375 C54.75988281 17.95582031 55.58617187 17.94679687 56.4375 17.9375 C57.26121094 17.92589844 58.08492188 17.91429687 58.93359375 17.90234375 C61 18 61 18 62 19 C63.81611046 18.90963174 65.62914655 18.75297676 67.4375 18.5625 C72.89873418 18 72.89873418 18 75 18 C75.37125 16.5459375 75.37125 16.5459375 75.75 15.0625 C76.1625 14.051875 76.575 13.04125 77 12 C79.125 11.125 79.125 11.125 81 11 C80.81738845 14.92614827 80.24456205 16.70916946 77.6875 19.75 C71.83111169 24.04285607 63.98379958 23.97287454 56.984375 24.13671875 C47.27878777 24.0623229 47.27878777 24.0623229 39.41796875 28.76171875 C37.92902229 31.8229347 36.87507452 34.71726189 36 38 C34.1535707 39.8464293 31.55257841 39.12878418 29.09587097 39.13894653 C28.26372574 39.1369223 27.43158051 39.13489807 26.57421875 39.1328125 C25.2872686 39.13424759 25.2872686 39.13424759 23.97431946 39.13571167 C22.14751106 39.13639431 20.32070027 39.1345342 18.49389648 39.13037109 C15.73740946 39.12509552 12.9810908 39.13027548 10.22460938 39.13671875 C1.10362382 39.13982567 -7.9233743 39.02525117 -17 38 C-16.67 37.34 -16.34 36.68 -16 36 C-15.34 36 -14.68 36 -14 36 C-13.7215625 35.29359375 -13.443125 34.5871875 -13.15625 33.859375 C-12.38966186 31.96362324 -11.59812837 30.07775612 -10.78125 28.203125 C-8.15846238 22.15791939 -6.18858985 16.48321736 -5 10 C-3.68 9.67 -2.36 9.34 -1 9 C-0.67 6.03 -0.34 3.06 0 0 Z " fill="#6978AE" transform="translate(237,166)"/>
<path d="M0 0 C0.96389145 0.00141495 1.9277829 0.0028299 2.92088318 0.00428772 C5.96681973 0.00983683 9.01267982 0.02237956 12.05859375 0.03515625 C14.13736872 0.04017784 16.21614486 0.04473959 18.29492188 0.04882812 C23.36200814 0.05978954 28.42903803 0.07701845 33.49609375 0.09765625 C33.49609375 0.42765625 33.49609375 0.75765625 33.49609375 1.09765625 C32.8913623 1.08081787 32.28663086 1.06397949 31.66357422 1.04663086 C20.29302516 0.40178251 20.29302516 0.40178251 9.8359375 3.78125 C8.15206546 6.19724032 7.28789698 8.26494843 6.49609375 11.09765625 C6.11904297 12.22107422 6.11904297 12.22107422 5.734375 13.3671875 C3.83517047 20.85513402 4.42345122 28.82181147 4.74462891 36.48120117 C4.924188 43.48583821 4.924188 43.48583821 2.62109375 46.77734375 C0.49609375 48.09765625 0.49609375 48.09765625 -1.62890625 47.78515625 C-2.24765625 47.55828125 -2.86640625 47.33140625 -3.50390625 47.09765625 C-4.49390625 47.59265625 -4.49390625 47.59265625 -5.50390625 48.09765625 C-10.14570054 48.40771717 -15.03577157 48.49394834 -19.50390625 47.09765625 C-19.83390625 46.43765625 -20.16390625 45.77765625 -20.50390625 45.09765625 C-21.49390625 45.44828125 -22.48390625 45.79890625 -23.50390625 46.16015625 C-25.421875 46.4453125 -25.421875 46.4453125 -27.50390625 46.09765625 C-32.84727558 41.94383413 -36.50281811 36.85500117 -37.50390625 30.09765625 C-38.24774373 22.212979 -36.33607556 14.87690835 -31.31640625 8.72265625 C-22.53743924 -0.38759253 -11.91573026 -0.06714065 0 0 Z " fill="#D2CCD9" transform="translate(59.50390625,145.90234375)"/>
<path d="M0 0 C3.20817532 1.88716195 4.47966375 3.01409974 6.1875 6.25 C5.92804502 10.05533969 4.06341106 11.71843422 1.69921875 14.6171875 C-4.11217637 22.76650019 -6.19668542 31.98869539 -6.1875 41.8125 C-6.1884668 42.87936035 -6.1884668 42.87936035 -6.18945312 43.96777344 C-6.13861687 49.0074945 -5.47291378 53.21303021 -4 58 C-4 59.32 -4 60.64 -4 62 C-9.83799592 63.69832609 -14.93107371 64.25287193 -21 64 C-21.268125 64.61875 -21.53625 65.2375 -21.8125 65.875 C-23 68 -23 68 -26 70 C-28.00748888 69.71522022 -30.00640237 69.36970205 -32 69 C-35.21302604 68.84266157 -38.42422858 68.85977407 -41.640625 68.8671875 C-42.56284851 68.86623077 -43.48507202 68.86527405 -44.4352417 68.86428833 C-46.38179594 68.86360977 -48.32835249 68.86544139 -50.27490234 68.86962891 C-53.22628989 68.87495719 -56.17752356 68.86968552 -59.12890625 68.86328125 C-61.02864616 68.86394257 -62.92838598 68.86522483 -64.828125 68.8671875 C-66.13333099 68.86415115 -66.13333099 68.86415115 -67.46490479 68.86105347 C-73.36204093 68.88316261 -79.14349906 69.3148435 -85 70 C-87.25684543 64.63999211 -88.36263859 60.8022175 -88 55 C-83 62.5 -83 62.5 -83 66 C-81.9076001 65.96447021 -80.8152002 65.92894043 -79.68969727 65.89233398 C-75.55042753 65.75977238 -71.4109029 65.63742668 -67.27124023 65.51782227 C-65.49576779 65.46517419 -63.72037003 65.4099291 -61.94506836 65.35180664 C-51.99711186 65.02799826 -42.18469023 64.87020607 -32.26210022 65.79771423 C-28.48777652 66.11038062 -27.26828211 66.17885474 -24 64 C-23.63837971 62.67405895 -23.30271961 61.34061543 -23 60 C-22.34 59.67 -21.68 59.34 -21 59 C-18.79268263 55.68902394 -18.82245874 52.90590763 -19 49 C-18.34 48.67 -17.68 48.34 -17 48 C-16.505 50.97 -16.505 50.97 -16 54 C-13.56282742 53.72965366 -13.56282742 53.72965366 -11 53 C-8.49984367 49.2497655 -8.85482623 47.39705671 -9 42.9375 C-9.13252726 36.72001386 -8.58627283 31.01933886 -7 25 C-9.11161264 24.7825303 -9.11161264 24.7825303 -10.65625 26.42578125 C-11.2646875 27.04839844 -11.873125 27.67101562 -12.5 28.3125 C-13.1084375 28.92738281 -13.716875 29.54226562 -14.34375 30.17578125 C-16.17615128 32.10322195 -16.17615128 32.10322195 -18 35 C-20.875 34.8125 -20.875 34.8125 -24 34 C-25.25 31.5 -25.25 31.5 -26 29 C-26.66 28.67 -27.32 28.34 -28 28 C-28 27.34 -28 26.68 -28 26 C-33.33835539 24.07528683 -38.34979382 22.60108576 -44 22 C-44.8746777 16.46037457 -42.72879985 12.99305521 -39.8515625 8.47265625 C-29.61656276 -5.19560289 -15.44198825 -5.62838824 0 0 Z " fill="#5C629D" transform="translate(152,126)"/>
<path d="M0 0 C1.70840281 1.63412443 2.93453047 2.86906094 4 5 C4.66 5.33 5.32 5.66 6 6 C6.4140625 8.21484375 6.4140625 8.21484375 6.625 10.9375 C6.69976562 11.83339844 6.77453125 12.72929687 6.8515625 13.65234375 C6.94306431 15.09951706 7 16.54993684 7 18 C7.66 18.33 8.32 18.66 9 19 C9.40729228 21.32156597 9.74438677 23.6568787 10 26 C11.1144751 26.01458252 12.2289502 26.02916504 13.37719727 26.04418945 C17.5353916 26.1024208 21.69305841 26.17965114 25.85083008 26.26245117 C27.64599 26.29558413 29.44125117 26.32365187 31.23657227 26.34643555 C33.82612012 26.38019664 36.41474971 26.43252125 39.00390625 26.48828125 C40.19651817 26.49786613 40.19651817 26.49786613 41.41322327 26.50764465 C47.98299503 26.67869552 52.47474814 28.31649876 58 32 C58.6875 34.625 58.6875 34.625 59 37 C58.443125 36.525625 57.88625 36.05125 57.3125 35.5625 C54.78632015 33.85562172 53.01343008 33.31720317 50 33 C49.01 33.495 49.01 33.495 48 34 C48 33.34 48 32.68 48 32 C47.13375 32.04125 46.2675 32.0825 45.375 32.125 C42 32 42 32 39.125 31 C35.21013068 29.74724182 32.09575842 29.85876695 28 30 C26.88997008 33.33008975 27.31483728 34.65983176 28 38 C27.505 38.99 27.505 38.99 27 40 C26.77377919 41.70363822 26.59111527 43.41328701 26.4375 45.125 C26.35371094 46.03507812 26.26992187 46.94515625 26.18359375 47.8828125 C26.09271484 48.93082031 26.09271484 48.93082031 26 50 C25.67 50 25.34 50 25 50 C24.95101562 48.99839844 24.90203125 47.99679688 24.8515625 46.96484375 C24.77645921 45.62237241 24.70091474 44.2799257 24.625 42.9375 C24.52058594 40.97103516 24.52058594 40.97103516 24.4140625 38.96484375 C24.00194564 35.01863043 23.20243433 31.75882927 22 28 C21.01 28 20.02 28 19 28 C19.05220703 28.93972656 19.05220703 28.93972656 19.10546875 29.8984375 C19.13253906 30.71570313 19.15960938 31.53296875 19.1875 32.375 C19.23970703 33.59316406 19.23970703 33.59316406 19.29296875 34.8359375 C19.19628906 35.55007812 19.09960938 36.26421875 19 37 C18.01 37.66 17.02 38.32 16 39 C15.01 38.505 15.01 38.505 14 38 C13.9071875 39.85625 13.9071875 39.85625 13.8125 41.75 C12.94663641 49.68080851 9.38520199 57.3870216 5 64 C4.01 64.495 4.01 64.495 3 65 C9.92558566 65.8399844 16.82885898 66.11810879 23.796875 66.24609375 C24.68016479 66.26274078 25.56345459 66.27938782 26.47351074 66.29653931 C30.16862042 66.3631883 33.86373128 66.42509871 37.55908203 66.47680664 C40.28439136 66.51665313 43.00929373 66.56810868 45.734375 66.62109375 C46.56056335 66.6295079 47.38675171 66.63792206 48.23797607 66.64659119 C53.17612805 66.75130434 57.31046779 67.43251092 62 69 C62 69.33 62 69.66 62 70 C60.80503906 69.98259766 60.80503906 69.98259766 59.5859375 69.96484375 C58.52632813 69.95582031 57.46671875 69.94679688 56.375 69.9375 C55.33085937 69.92589844 54.28671875 69.91429687 53.2109375 69.90234375 C50.07984039 69.912225 50.07984039 69.912225 47.37182617 70.5065918 C43.15598142 71.12350746 39.09165456 71.06699063 34.83984375 70.9921875 C33.05925041 70.97467913 31.2786511 70.95777009 29.49804688 70.94140625 C26.71101182 70.91040913 23.92427856 70.87478097 21.13745117 70.82861328 C18.43404379 70.7862349 15.73099273 70.76283144 13.02734375 70.7421875 C12.19702133 70.72356659 11.36669891 70.70494568 10.51121521 70.6857605 C5.7425864 70.66467166 2.98974397 71.12715747 -1 74 C-1.66 74 -2.32 74 -3 74 C-3.2475 74.61875 -3.495 75.2375 -3.75 75.875 C-5.20628639 78.35068687 -6.37812506 78.95125002 -9 80 C-9 80.99 -9 81.98 -9 83 C-10.32 82.67 -11.64 82.34 -13 82 C-12.67 82.99 -12.34 83.98 -12 85 C-12.5259375 85.9590625 -12.5259375 85.9590625 -13.0625 86.9375 C-14.2257722 88.95934561 -14.2257722 88.95934561 -13.5625 91.125 C-11.16626334 94.00048399 -8.59445278 94.26892486 -5 95 C-2.37468476 95.16713569 -2.37468476 95.16713569 0 95 C2 95 4 95 6 95 C6 95.99 6 96.98 6 98 C-8.94640371 100.09907193 -8.94640371 100.09907193 -15 96 C-16.99312632 92.36065227 -17.22381484 89.28831572 -17.125 85.1875 C-17.10695312 84.21167969 -17.08890625 83.23585938 -17.0703125 82.23046875 C-17.04710937 81.49441406 -17.02390625 80.75835937 -17 80 C-18.11375 80.04125 -19.2275 80.0825 -20.375 80.125 C-24 80 -24 80 -26 78 C-24.98679688 77.60167969 -24.98679688 77.60167969 -23.953125 77.1953125 C-23.06109375 76.84210938 -22.1690625 76.48890625 -21.25 76.125 C-20.36828125 75.77695313 -19.4865625 75.42890625 -18.578125 75.0703125 C-17.72734375 74.71710938 -16.8765625 74.36390625 -16 74 C-15.2471875 73.690625 -14.494375 73.38125 -13.71875 73.0625 C-11.62299569 72.0458324 -11.62299569 72.0458324 -11.25 68.875 C-11.1675 67.92625 -11.085 66.9775 -11 66 C-10.34 66 -9.68 66 -9 66 C-9 65.34 -9 64.68 -9 64 C-8.01 63.505 -8.01 63.505 -7 63 C-6.66073053 60.66752239 -6.32759934 58.33414529 -6 56 C-5.34 55.34 -4.68 54.68 -4 54 C-3.01 54 -2.02 54 -1 54 C0.91475731 40.30092329 0.79245381 27.44259798 -3.125 14.125 C-4 11 -4 11 -4 8 C-4.66 8 -5.32 8 -6 8 C-6 7.34 -6 6.68 -6 6 C-5.01 6 -4.02 6 -3 6 C-2.01 4.02 -1.02 2.04 0 0 Z " fill="#AB9DBB" transform="translate(218,138)"/>
<path d="M0 0 C0.76650375 -0.00004028 1.53300751 -0.00008057 2.32273865 -0.00012207 C4.8012758 0.00325262 7.27936545 0.02208674 9.7578125 0.04296875 C11.47029534 0.05184764 13.18277909 0.06055422 14.89526367 0.0690918 C19.89146829 0.10041402 24.88703469 0.1589107 29.8828125 0.23046875 C30.57816101 0.24013672 31.27350952 0.24980469 31.9899292 0.25976562 C36.05970184 0.32027332 40.12704164 0.41794138 44.1953125 0.54296875 C45.16388184 0.56528564 46.13245117 0.58760254 47.13037109 0.6105957 C55.56326251 0.94337415 63.10776394 2.55446326 69.375 8.515625 C74.36273018 14.18819896 75.58595349 19.67809035 75.34765625 27.1796875 C74.60575055 32.04883331 72.67736334 36.19107253 69.8828125 40.23046875 C68.8928125 40.72546875 68.8928125 40.72546875 67.8828125 41.23046875 C67.8828125 39.91046875 67.8828125 38.59046875 67.8828125 37.23046875 C64.49944646 39.48604611 64.28208738 40.59235407 62.8828125 44.23046875 C61.8928125 44.72546875 61.8928125 44.72546875 60.8828125 45.23046875 C60.8828125 44.57046875 60.8828125 43.91046875 60.8828125 43.23046875 C59.95597656 43.38644531 59.02914062 43.54242188 58.07421875 43.703125 C56.87667969 43.89777344 55.67914063 44.09242188 54.4453125 44.29296875 C52.65287109 44.58880859 52.65287109 44.58880859 50.82421875 44.890625 C49.85355469 45.00277344 48.88289063 45.11492187 47.8828125 45.23046875 C47.5528125 44.90046875 47.2228125 44.57046875 46.8828125 44.23046875 C44.21222399 44.08931714 41.55849012 44.18799768 38.8828125 44.23046875 C39.7578125 37.35546875 39.7578125 37.35546875 40.8828125 36.23046875 C41.50129848 25.68052518 41.78407751 15.47249277 36.0078125 6.23046875 C31.20377404 1.70902079 26.09504424 1.95739719 19.86328125 2.03515625 C18.57542473 2.03940109 18.57542473 2.03940109 17.2615509 2.04373169 C14.53099375 2.05488805 11.8007698 2.07998416 9.0703125 2.10546875 C7.21419746 2.11550443 5.35807726 2.12462925 3.50195312 2.1328125 C-1.03788796 2.15481249 -5.57748131 2.18931094 -10.1171875 2.23046875 C-10.1171875 3.22046875 -10.1171875 4.21046875 -10.1171875 5.23046875 C-16.7421875 6.23046875 -16.7421875 6.23046875 -20.1171875 6.23046875 C-14.10611402 0.7658565 -7.89938786 -0.07868769 0 0 Z " fill="#B9AEC8" transform="translate(249.1171875,140.76953125)"/>
<path d="M0 0 C1.91619141 0.08314453 1.91619141 0.08314453 3.87109375 0.16796875 C8.06487566 0.90021638 10.32945027 2.06708975 13.5625 4.8125 C14.4375 7.0625 14.4375 7.0625 14.5625 8.8125 C5.87413005 10.01981692 -2.64044908 11.19314163 -11.4375 10.8125 C-11.4375 11.4725 -11.4375 12.1325 -11.4375 12.8125 C-13.0875 12.8125 -14.7375 12.8125 -16.4375 12.8125 C-17.0975 11.1625 -17.7575 9.5125 -18.4375 7.8125 C-18.7675 8.1425 -19.0975 8.4725 -19.4375 8.8125 C-19.4375 9.8025 -19.4375 10.7925 -19.4375 11.8125 C-33.7925 12.8025 -33.7925 12.8025 -48.4375 13.8125 C-48.4375 14.8025 -48.4375 15.7925 -48.4375 16.8125 C-49.4275 17.1425 -50.4175 17.4725 -51.4375 17.8125 C-51.4375 16.8225 -51.4375 15.8325 -51.4375 14.8125 C-52.51 14.709375 -53.5825 14.60625 -54.6875 14.5 C-58.29570872 13.83849507 -59.80145023 13.23766579 -62.4375 10.8125 C-61.96445318 6.55507863 -59.5511178 4.55544902 -56.4375 1.8125 C-53.71906645 0.90635548 -52.19843526 0.69419762 -49.41259766 0.71484375 C-48.60811188 0.71814697 -47.8036261 0.7214502 -46.97476196 0.72485352 C-45.67627823 0.73730103 -45.67627823 0.73730103 -44.3515625 0.75 C-43.01066055 0.75567993 -43.01066055 0.75567993 -41.64266968 0.76147461 C-37.81738716 0.77782429 -33.99221129 0.8059152 -30.16699219 0.83300781 C-27.374354 0.85111089 -24.58173328 0.86319578 -21.7890625 0.875 C-20.92745514 0.88329834 -20.06584778 0.89159668 -19.1781311 0.90014648 C-12.66200074 0.92669371 -6.52184267 -0.34809432 0 0 Z " fill="#A2B57C" transform="translate(275.4375,207.1875)"/>
<path d="M0 0 C2.70894767 -0.08144943 5.41541263 -0.14070614 8.125 -0.1875 C8.88554687 -0.21263672 9.64609375 -0.23777344 10.4296875 -0.26367188 C16.47481586 -0.34184164 20.65617377 0.7901067 25.1875 5.0625 C30.65688798 13.92668051 31.22843646 23.99000719 29 34 C28.01 33.505 28.01 33.505 27 33 C25.68 35.31 24.36 37.62 23 40 C22.67 39.34 22.34 38.68 22 38 C21.01 38 20.02 38 19 38 C15 32 15 32 15 28 C8.50178469 24.50096099 2.26364697 23.54549127 -5 23 C-5 22.34 -5 21.68 -5 21 C-1.18243176 19.62567543 2.07255329 20.32024961 6 21 C7.06489861 17.80530417 6.96436169 17.13354537 6.0625 14.0625 C5.19540068 11.08220499 5 9.2344611 5 6 C4.34 6 3.68 6 3 6 C3.33 4.68 3.66 3.36 4 2 C5.98 2 7.96 2 10 2 C6.7 1.67 3.4 1.34 0 1 C0 0.67 0 0.34 0 0 Z " fill="#C59A64" transform="translate(261,142)"/>
<path d="M0 0 C0.94875 0.9075 1.8975 1.815 2.875 2.75 C2.545 3.41 2.215 4.07 1.875 4.75 C0.24739583 4.00130208 -1.38020833 3.25260417 -3.0078125 2.50390625 C-10.35720487 -0.1131283 -20.63704736 -1.1363327 -27.89453125 1.9140625 C-34.49086221 6.18034621 -38.20569125 11.58368994 -41.8125 18.5 C-45.04029412 24.66529412 -45.04029412 24.66529412 -46.125 25.75 C-48.33984375 25.734375 -48.33984375 25.734375 -51.0625 25.5 C-51.95839844 25.43296875 -52.85429688 25.3659375 -53.77734375 25.296875 C-56.125 24.75 -56.125 24.75 -58.125 21.75 C-58.125 14.0037239 -54.06296924 7.05114994 -49.0078125 1.37109375 C-35.78174281 -11.05408937 -14.04809606 -11.88468927 0 0 Z " fill="#7984A8" transform="translate(151.125,123.25)"/>
<path d="M0 0 C0.99 0 1.98 0 3 0 C6.3124579 6.26081185 6.53532708 11.93319779 6.6875 18.9375 C6.73874023 20.53561523 6.73874023 20.53561523 6.79101562 22.16601562 C6.87298226 24.77723846 6.94229887 27.38814721 7 30 C10.71279469 31.23759823 14.31306346 31.35608897 18.1875 31.5625 C18.93708984 31.60568359 19.68667969 31.64886719 20.45898438 31.69335938 C22.30578375 31.79922685 24.15286834 31.9000976 26 32 C23 34 23 34 20 35 C23.96 35 27.92 35 32 35 C32 35.99 32 36.98 32 38 C32.99 38.33 33.98 38.66 35 39 C29.52311525 39.02496476 24.04626459 39.04298372 18.56933594 39.05493164 C16.71125714 39.05991956 14.85318218 39.06671228 12.99511719 39.07543945 C2.9504266 39.12139202 -7.00302463 39.14210679 -17 38 C-16.67 37.34 -16.34 36.68 -16 36 C-15.34 36 -14.68 36 -14 36 C-13.7215625 35.29359375 -13.443125 34.5871875 -13.15625 33.859375 C-12.38966186 31.96362324 -11.59812837 30.07775612 -10.78125 28.203125 C-8.15846238 22.15791939 -6.18858985 16.48321736 -5 10 C-3.68 9.67 -2.36 9.34 -1 9 C-0.67 6.03 -0.34 3.06 0 0 Z " fill="#49518D" transform="translate(237,166)"/>
<path d="M0 0 C1.41898766 2.64877696 2.31911019 5.08014819 3 8 C3.60386536 7.8582988 4.20773071 7.7165976 4.82989502 7.57060242 C11.02732902 6.21049677 16.83930645 5.71723746 23.171875 5.76953125 C24.09792542 5.76998947 25.02397583 5.77044769 25.97808838 5.7709198 C27.91753435 5.773917 29.85697847 5.78172622 31.79638672 5.79418945 C34.75627196 5.81253888 37.7158448 5.81469803 40.67578125 5.81445312 C42.57031519 5.81936627 44.46484703 5.8251937 46.359375 5.83203125 C47.23760925 5.83314407 48.11584351 5.8342569 49.02069092 5.83540344 C52.58969713 5.86289773 55.83417541 5.96856675 59.35253906 6.63549805 C62.44062623 7.06066534 63.33498232 6.44994577 66 5 C68.47363281 4.86474609 68.47363281 4.86474609 71.203125 5.0234375 C72.67265625 5.10078125 72.67265625 5.10078125 74.171875 5.1796875 C75.69554687 5.27636719 75.69554687 5.27636719 77.25 5.375 C78.796875 5.46007812 78.796875 5.46007812 80.375 5.546875 C82.91739205 5.688119 85.45876238 5.83950746 88 6 C88.495 7.98 88.495 7.98 89 10 C88.01 9.67 87.02 9.34 86 9 C86 9.66 86 10.32 86 11 C86.99 11.495 86.99 11.495 88 12 C85.23723823 11.47731534 82.6739124 10.89130413 80 10 C76.45821402 9.74996036 76.45821402 9.74996036 73 10 C72.34 10.66 71.68 11.32 71 12 C68.7578125 12.23046875 68.7578125 12.23046875 66.125 12.1875 C65.26132813 12.18105469 64.39765625 12.17460937 63.5078125 12.16796875 C61.20807774 12.01393667 59.20716511 11.64161776 57 11 C57 10.34 57 9.68 57 9 C50.68293999 8.9238534 44.36599861 8.87135968 38.04858398 8.83520508 C35.90010149 8.82013085 33.7516497 8.79966811 31.60327148 8.77368164 C28.51278092 8.73723886 25.42269769 8.72025981 22.33203125 8.70703125 C21.37351761 8.69154739 20.41500397 8.67606354 19.42744446 8.66011047 C14.36570723 8.65883687 11.19092157 8.86253412 7 12 C6.175 12.12375 5.35 12.2475 4.5 12.375 C0.94856873 13.26285782 -0.62658015 15.2969385 -3 18 C-4.60670684 21.21341369 -3.82510855 24.62958968 -3.5625 28.125 C-3.48418945 29.25615234 -3.48418945 29.25615234 -3.40429688 30.41015625 C-3.27454996 32.2737937 -3.13792512 34.13694996 -3 36 C-1.515 36.495 -1.515 36.495 0 37 C-0.66 37.99 -1.32 38.98 -2 40 C-1.34 40.33 -0.68 40.66 0 41 C-1.98 41 -3.96 41 -6 41 C-9.90441139 31.56433913 -10.6790239 21.65926992 -7 12 C-8.61068359 11.61908203 -8.61068359 11.61908203 -10.25390625 11.23046875 C-11.69018198 10.8831341 -13.12637556 10.53545967 -14.5625 10.1875 C-15.26697266 10.02185547 -15.97144531 9.85621094 -16.69726562 9.68554688 C-21.38412291 8.54083058 -25.61326048 7.01178987 -30 5 C-30 4.34 -30 3.68 -30 3 C-27.05840581 2.82696505 -25.04255331 2.98452607 -22.25 4 C-16.53100424 5.759691 -10.78819535 5.40319887 -5 4 C-4.34 4 -3.68 4 -3 4 C-2.34 3.01 -1.68 2.02 -1 1 C-0.67 0.67 -0.34 0.34 0 0 Z " fill="#CD9DBA" transform="translate(64,188)"/>
<path d="M0 0 C0.31476383 3.53918477 0.56888319 7.0802637 0.8125 10.625 C0.90208984 11.62402344 0.99167969 12.62304688 1.08398438 13.65234375 C1.60941806 22.00397392 1.60941806 22.00397392 -0.98828125 25.5234375 C-6.69296466 30.21444824 -12.72990366 31.41997412 -20 32.125 C-21.10239014 32.24065308 -21.10239014 32.24065308 -22.22705078 32.35864258 C-24.48355306 32.58738457 -26.74111864 32.79623236 -29 33 C-29.6712793 33.06461426 -30.34255859 33.12922852 -31.03417969 33.19580078 C-43.24178813 34.33741005 -55.62215776 34.22411995 -67.76953125 32.44921875 C-70.53413544 32.06478165 -72.86067732 32.00679339 -75.625 32.1875 C-82.04664731 32.27655212 -88.09546036 30.44018682 -94 28 C-94.33 27.34 -94.66 26.68 -95 26 C-93.10388566 26.14213297 -91.20811606 26.28886907 -89.3125 26.4375 C-88.25675781 26.51871094 -87.20101562 26.59992188 -86.11328125 26.68359375 C-83 27 -83 27 -80.63009644 27.51069641 C-77.96004789 28.0074327 -75.51870142 28.13357875 -72.80517578 28.14526367 C-71.28671555 28.15483345 -71.28671555 28.15483345 -69.73757935 28.16459656 C-68.65113129 28.16570938 -67.56468323 28.1668222 -66.4453125 28.16796875 C-65.31157196 28.17129715 -64.17783142 28.17462555 -63.00973511 28.17805481 C-60.60740565 28.18311536 -58.20506916 28.1854634 -55.80273438 28.18530273 C-52.17305458 28.18747129 -48.54368782 28.2055867 -44.9140625 28.22460938 C-24.49876265 28.98665496 -24.49876265 28.98665496 -5 24 C-2.5413367 19.97338675 -2.76107664 15.7663427 -2.875 11.1875 C-2.88402344 10.49462891 -2.89304687 9.80175781 -2.90234375 9.08789062 C-2.92573843 7.39177605 -2.96160359 5.69584129 -3 4 C-5.13824408 4.23758268 -7.27640036 4.47598711 -9.4140625 4.71875 C-11.09467913 4.9015361 -12.77704937 5.06907105 -14.4609375 5.21875 C-15.62496094 5.32703125 -15.62496094 5.32703125 -16.8125 5.4375 C-17.52019531 5.49808594 -18.22789062 5.55867187 -18.95703125 5.62109375 C-21.24505081 6.04544919 -22.97365054 6.87526221 -25 8 C-25.99 6.515 -25.99 6.515 -27 5 C-25.85402344 4.80664062 -24.70804687 4.61328125 -23.52734375 4.4140625 C-21.99736117 4.15124341 -20.46741518 3.88821121 -18.9375 3.625 C-17.80924805 3.43550781 -17.80924805 3.43550781 -16.65820312 3.2421875 C-13.08429182 2.6233284 -9.60676077 1.93602946 -6.12890625 0.8984375 C-3 0 -3 0 0 0 Z " fill="#9B647C" transform="translate(158,205)"/>
<path d="M0 0 C0.99 0.495 0.99 0.495 2 1 C1.9278125 1.53625 1.855625 2.0725 1.78125 2.625 C0.50787914 13.37790948 -0.21146318 24.56274467 3 35 C3 36.32 3 37.64 3 39 C-2.83799592 40.69832609 -7.93107371 41.25287193 -14 41 C-14.268125 41.61875 -14.53625 42.2375 -14.8125 42.875 C-16 45 -16 45 -19 47 C-21.00748888 46.71522022 -23.00640237 46.36970205 -25 46 C-28.21302604 45.84266157 -31.42422858 45.85977407 -34.640625 45.8671875 C-35.56284851 45.86623077 -36.48507202 45.86527405 -37.4352417 45.86428833 C-39.38179594 45.86360977 -41.32835249 45.86544139 -43.27490234 45.86962891 C-46.22628989 45.87495719 -49.17752356 45.86968552 -52.12890625 45.86328125 C-54.02864616 45.86394257 -55.92838598 45.86522483 -57.828125 45.8671875 C-59.13333099 45.86415115 -59.13333099 45.86415115 -60.46490479 45.86105347 C-66.36204093 45.88316261 -72.14349906 46.3148435 -78 47 C-80.25684543 41.63999211 -81.36263859 37.8022175 -81 32 C-76 39.5 -76 39.5 -76 43 C-74.9076001 42.96447021 -73.8152002 42.92894043 -72.68969727 42.89233398 C-68.55042753 42.75977238 -64.4109029 42.63742668 -60.27124023 42.51782227 C-58.49576779 42.46517419 -56.72037003 42.4099291 -54.94506836 42.35180664 C-44.99711186 42.02799826 -35.18469023 41.87020607 -25.26210022 42.79771423 C-21.48777652 43.11038062 -20.26828211 43.17885474 -17 41 C-16.63837971 39.67405895 -16.30271961 38.34061543 -16 37 C-15.34 36.67 -14.68 36.34 -14 36 C-11.79268263 32.68902394 -11.82245874 29.90590763 -12 26 C-11.01 25.505 -11.01 25.505 -10 25 C-9.505 27.97 -9.505 27.97 -9 31 C-6.56282742 30.72965366 -6.56282742 30.72965366 -4 30 C-1.49984367 26.2497655 -1.85482623 24.39705671 -2 19.9375 C-2.11821311 14.37946886 -1.74337936 9.26942692 -0.4375 3.85546875 C0.07649872 1.99328849 0.07649872 1.99328849 0 0 Z " fill="#595A98" transform="translate(145,149)"/>
<path d="M0 0 C1.55741913 0.02068794 1.55741913 0.02068794 3.14630127 0.04179382 C4.26816833 0.07287735 5.3900354 0.10396088 6.54589844 0.13598633 C7.70144226 0.15768387 8.85698608 0.17938141 10.04754639 0.20173645 C12.49555986 0.2510571 14.94343185 0.30787877 17.39111328 0.37158203 C21.12615713 0.46727164 24.86100326 0.53694653 28.59667969 0.6027832 C30.97561985 0.65396486 33.35452823 0.70665059 35.73339844 0.76098633 C36.84716858 0.7819487 37.96093872 0.80291107 39.10845947 0.82450867 C44.72548454 0.98246899 49.5950398 1.40489762 54.90527344 3.28051758 C54.90527344 3.61051758 54.90527344 3.94051758 54.90527344 4.28051758 C53.7103125 4.26311523 53.7103125 4.26311523 52.49121094 4.24536133 C50.90179688 4.23182617 50.90179688 4.23182617 49.28027344 4.21801758 C47.7140625 4.20061523 47.7140625 4.20061523 46.11621094 4.18286133 C42.98511383 4.19274258 42.98511383 4.19274258 40.27709961 4.78710938 C36.06125485 5.40402504 31.99692799 5.34750821 27.74511719 5.27270508 C25.96452385 5.2551967 24.18392454 5.23828767 22.40332031 5.22192383 C19.61628526 5.1909267 16.82955199 5.15529855 14.04272461 5.10913086 C11.33931723 5.06675248 8.63626617 5.04334902 5.93261719 5.02270508 C5.10229477 5.00408417 4.27197235 4.98546326 3.41648865 4.96627808 C-1.35214016 4.94518924 -4.10498259 5.40767504 -8.09472656 8.28051758 C-8.75472656 8.28051758 -9.41472656 8.28051758 -10.09472656 8.28051758 C-10.34222656 8.89926758 -10.58972656 9.51801758 -10.84472656 10.15551758 C-12.30101296 12.63120445 -13.47285162 13.2317676 -16.09472656 14.28051758 C-16.09472656 15.27051758 -16.09472656 16.26051758 -16.09472656 17.28051758 C-17.41472656 16.95051758 -18.73472656 16.62051758 -20.09472656 16.28051758 C-19.76472656 17.27051758 -19.43472656 18.26051758 -19.09472656 19.28051758 C-19.44535156 19.91989258 -19.79597656 20.55926758 -20.15722656 21.21801758 C-21.32049877 23.23986318 -21.32049877 23.23986318 -20.65722656 25.40551758 C-18.26098991 28.28100157 -15.68917934 28.54944244 -12.09472656 29.28051758 C-9.46941132 29.44765327 -9.46941132 29.44765327 -7.09472656 29.28051758 C-5.09472656 29.28051758 -3.09472656 29.28051758 -1.09472656 29.28051758 C-1.09472656 30.27051758 -1.09472656 31.26051758 -1.09472656 32.28051758 C-16.04113027 34.3795895 -16.04113027 34.3795895 -22.09472656 30.28051758 C-24.17603861 26.49935583 -24.44809844 22.98875689 -24.53222656 18.71801758 C-24.5721875 17.60297852 -24.61214844 16.48793945 -24.65332031 15.33911133 C-24.09472656 12.28051758 -24.09472656 12.28051758 -21.71972656 9.97973633 C-20.85347656 9.41899414 -19.98722656 8.85825195 -19.09472656 8.28051758 C-17.88816406 7.47614258 -17.88816406 7.47614258 -16.65722656 6.65551758 C-14.09472656 5.28051758 -14.09472656 5.28051758 -10.96972656 4.28051758 C-8.10597623 3.54842205 -8.10597623 3.54842205 -6.73345947 1.73554993 C-4.45563921 -0.28692863 -3.01278167 -0.06064811 0 0 Z " fill="#B7C1A1" transform="translate(225.0947265625,203.719482421875)"/>
<path d="M0 0 C0 0.33 0 0.66 0 1 C-1.13888672 1.07347656 -1.13888672 1.07347656 -2.30078125 1.1484375 C-3.79158203 1.26058594 -3.79158203 1.26058594 -5.3125 1.375 C-6.79169922 1.47941406 -6.79169922 1.47941406 -8.30078125 1.5859375 C-11.21528433 1.83865472 -11.21528433 1.83865472 -14 4 C-14.94875 4.433125 -15.8975 4.86625 -16.875 5.3125 C-23.99054665 9.15489519 -30.30165794 16.94966703 -32.890625 24.6484375 C-33.35405606 26.74711814 -33.69124968 28.87305336 -34 31 C-35.98 31 -37.96 31 -40 31 C-40 28.36 -40 25.72 -40 23 C-40.66 23 -41.32 23 -42 23 C-41.67 25.64 -41.34 28.28 -41 31 C-41.99 30.34 -42.98 29.68 -44 29 C-43.60335381 20.07546068 -39.05204743 12.53786636 -32.625 6.5 C-22.73601822 -1.61361089 -12.2439107 -1.19677323 0 0 Z " fill="#94A2C7" transform="translate(137,116)"/>
<path d="M0 0 C0.99 0 1.98 0 3 0 C3.66 2.31 4.32 4.62 5 7 C4.01 6.01 3.02 5.02 2 4 C1.67 14.23 1.34 24.46 1 35 C1.66 35.33 2.32 35.66 3 36 C0.40742331 36.86419223 -1.34037707 37.17580932 -4.01171875 37.31640625 C-4.76904297 37.35830078 -5.52636719 37.40019531 -6.30664062 37.44335938 C-7.09232422 37.48267578 -7.87800781 37.52199219 -8.6875 37.5625 C-9.48478516 37.60568359 -10.28207031 37.64886719 -11.10351562 37.69335938 C-13.06881447 37.79927368 -15.03438496 37.90012551 -17 38 C-16.67 37.34 -16.34 36.68 -16 36 C-15.34 36 -14.68 36 -14 36 C-13.7215625 35.29359375 -13.443125 34.5871875 -13.15625 33.859375 C-12.38966186 31.96362324 -11.59812837 30.07775612 -10.78125 28.203125 C-8.15846238 22.15791939 -6.18858985 16.48321736 -5 10 C-3.68 9.67 -2.36 9.34 -1 9 C-0.67 6.03 -0.34 3.06 0 0 Z " fill="#6873AB" transform="translate(237,166)"/>
<path d="M0 0 C-2.79854616 -0.50882657 -5.36844576 -1.12782812 -8.0625 -2.0625 C-18.4057003 -5.06898338 -34.34094856 -3.96751217 -44 1 C-44.99 2.485 -44.99 2.485 -46 4 C-46.99 4 -47.98 4 -49 4 C-48.67 4.99 -48.34 5.98 -48 7 C-48.99 8.485 -48.99 8.485 -50 10 C-50.1546875 10.99 -50.1546875 10.99 -50.3125 12 C-51.32373191 14.94176555 -53.35679573 15.51722688 -56 17 C-58.30046261 19.8497687 -58.30046261 19.8497687 -58 23.25 C-58 27 -58 27 -58.9375 30.1875 C-60.38419485 35.37858153 -60.88955799 40.61382811 -61 46 C-60.67 46.33 -60.34 46.66 -60 47 C-59.92794489 48.68608966 -59.91613932 50.37500659 -59.9375 52.0625 C-59.94652344 52.98160156 -59.95554688 53.90070313 -59.96484375 54.84765625 C-59.97644531 55.55792969 -59.98804688 56.26820313 -60 57 C-64.54006589 52.45993411 -64.27425944 45.40010788 -64.375 39.3125 C-64.34747878 27.47287043 -60.59466566 17.76010517 -54 8 C-52.06201737 5.22739701 -52.06201737 5.22739701 -51 3 C-37.49343649 -6.36048093 -13.97928276 -11.79811807 0 0 Z " fill="#D7D6ED" transform="translate(209,129)"/>
<path d="M0 0 C1.90265625 0.08314453 1.90265625 0.08314453 3.84375 0.16796875 C8.01540585 0.9033568 10.28075385 2.08292834 13.5 4.8125 C14.375 7.0625 14.375 7.0625 14.5 8.8125 C5.45960217 10.08291977 -3.34435229 11.16165606 -12.5 10.8125 C-14.92857143 4.52678571 -14.92857143 4.52678571 -13.5 0.8125 C-8.89333078 -0.11878652 -4.6900165 -0.25261268 0 0 Z " fill="#99AD79" transform="translate(275.5,207.1875)"/>
<path d="M0 0 C1.4540625 0.5259375 1.4540625 0.5259375 2.9375 1.0625 C7.46562421 2.35885814 11.41466606 1.73145121 16 1 C23.62048193 -0.12650602 23.62048193 -0.12650602 27 1 C29.06618749 0.90731495 29.06618749 0.90731495 31.1875 0.5625 C32.445625 0.376875 33.70375 0.19125 35 0 C35 0.66 35 1.32 35 2 C31.18320388 4.90803514 27.60428934 6.68448876 23 8 C23 8.66 23 9.32 23 10 C13.16038744 10.33671678 3.8262553 9.69481665 -5 5 C-5.33 4.01 -5.66 3.02 -6 2 C-4.7934375 1.7834375 -4.7934375 1.7834375 -3.5625 1.5625 C-1.07896294 1.25864751 -1.07896294 1.25864751 0 0 Z " fill="#BBB6CD" transform="translate(171,208)"/>
<path d="M0 0 C0.33 0 0.66 0 1 0 C1.10696872 4.59965514 1.0887918 8.82241639 -1 13 C-0.36191406 12.98839844 0.27617187 12.97679687 0.93359375 12.96484375 C1.75988281 12.95582031 2.58617187 12.94679687 3.4375 12.9375 C4.26121094 12.92589844 5.08492188 12.91429687 5.93359375 12.90234375 C8 13 8 13 9 14 C10.81611046 13.90963174 12.62914655 13.75297676 14.4375 13.5625 C19.89873418 13 19.89873418 13 22 13 C22.2475 12.030625 22.495 11.06125 22.75 10.0625 C23.36875 8.5465625 23.36875 8.5465625 24 7 C26.125 6.125 26.125 6.125 28 6 C27.86297357 8.94606829 27.70124445 11.20159518 25.703125 13.4765625 C21.27712432 17.22332545 18.11599238 18.12759784 12.45703125 18.09765625 C11.38388672 18.09443359 10.31074219 18.09121094 9.20507812 18.08789062 C8.08552734 18.07951172 6.96597656 18.07113281 5.8125 18.0625 C4.68134766 18.05798828 3.55019531 18.05347656 2.38476562 18.04882812 C-0.41020927 18.03703498 -3.2050782 18.0205765 -6 18 C-6 17.67 -6 17.34 -6 17 C-7.98 16.34 -9.96 15.68 -12 15 C-12.33 11.7 -12.66 8.4 -13 5 C-12.01 4.67 -11.02 4.34 -10 4 C-10 5.65 -10 7.3 -10 9 C-8.12119128 8.95231597 -8.12119128 8.95231597 -6 8 C-3.83973235 5.0929357 -3.83973235 5.0929357 -2 2 C-1.34 1.34 -0.68 0.68 0 0 Z " fill="#6C5F92" transform="translate(290,171)"/>
<path d="M0 0 C3 2 3 2 4.0625 4.125 C3.97576224 8.11493683 2.10647946 9.78019759 -0.36328125 12.796875 C-2.91506103 16.23172893 -4.44072873 20.03761653 -6 24 C-7.32 23.34 -8.64 22.68 -10 22 C-11.29477062 23.26767077 -12.58570339 24.53926224 -13.875 25.8125 C-14.59429687 26.52019531 -15.31359375 27.22789062 -16.0546875 27.95703125 C-18.15358937 30.04399194 -18.15358937 30.04399194 -20 33 C-21.98 32.67 -23.96 32.34 -26 32 C-26 31.01 -26 30.02 -26 29 C-24.68 29 -23.36 29 -22 29 C-21.938125 28.443125 -21.87625 27.88625 -21.8125 27.3125 C-20.6523629 24.01057134 -18.54440205 22.37092009 -16 20 C-15.113125 19.071875 -14.22625 18.14375 -13.3125 17.1875 C-11 15 -11 15 -9 15 C-8.9071875 14.1646875 -8.9071875 14.1646875 -8.8125 13.3125 C-7.67629251 10.07867869 -5.40160569 8.40160569 -3 6 C-2.13880866 3.82653432 -2.13880866 3.82653432 -2 2 C-1.34 2 -0.68 2 0 2 C0 1.34 0 0.68 0 0 Z " fill="#666EA4" transform="translate(154,128)"/>
<path d="M0 0 C1.32 1.32 2.64 2.64 4 4 C4.515625 3.67 5.03125 3.34 5.5625 3 C8.78026512 1.67989123 11.5570528 1.86757895 15 2 C14.21625 2.7425 13.4325 3.485 12.625 4.25 C9.63543701 7.26121325 9.63543701 7.26121325 8 11 C8.66 12.65 9.32 14.3 10 16 C13.63 16 17.26 16 21 16 C21 16.99 21 17.98 21 19 C24.63 19.33 28.26 19.66 32 20 C32 20.33 32 20.66 32 21 C27.70834738 21.02891949 23.41671964 21.04677118 19.125 21.0625 C17.90167969 21.07087891 16.67835938 21.07925781 15.41796875 21.08789062 C13.66806641 21.09272461 13.66806641 21.09272461 11.8828125 21.09765625 C10.26463623 21.10551147 10.26463623 21.10551147 8.61376953 21.11352539 C6 21 6 21 4 20 C3.59270772 17.67843403 3.25561323 15.3431213 3 13 C2.01 12.67 1.02 12.34 0 12 C0 8.04 0 4.08 0 0 Z " fill="#D8C49F" transform="translate(224,144)"/>
<path d="M0 0 C2.125 0.9375 2.125 0.9375 4 2 C4 2.66 4 3.32 4 4 C3.34 4 2.68 4 2 4 C1.9071875 5.0828125 1.9071875 5.0828125 1.8125 6.1875 C0.75482086 9.84869702 -1.27166143 11.40807836 -4 14 C-4.33 14.99 -4.66 15.98 -5 17 C-6.70703125 18.68359375 -6.70703125 18.68359375 -8.8125 20.4375 C-9.53179687 21.04980469 -10.25109375 21.66210938 -10.9921875 22.29296875 C-11.65476563 22.85628906 -12.31734375 23.41960937 -13 24 C-16.27451962 26.99544233 -16.27451962 26.99544233 -18 31 C-19.32 31 -20.64 31 -22 31 C-21.60791281 25.64147506 -19.6642613 21.85831875 -16 18 C-15.34 18 -14.68 18 -14 18 C-13.74089844 17.42121094 -13.48179687 16.84242188 -13.21484375 16.24609375 C-11.90900822 13.83176762 -10.41900584 12.07870527 -8.5625 10.0625 C-5.97463733 7.18471081 -3.9352272 4.36118409 -2 1 C-1.34 0.67 -0.68 0.34 0 0 Z " fill="#535793" transform="translate(150,126)"/>
<path d="M0 0 C4.71391399 -0.074557 9.42747929 -0.12879273 14.1418457 -0.16479492 C15.74314356 -0.17981466 17.34440075 -0.20023663 18.94555664 -0.22631836 C21.25677571 -0.26300438 23.56744756 -0.27979435 25.87890625 -0.29296875 C26.58648575 -0.30845261 27.29406525 -0.32393646 28.02308655 -0.33988953 C34.44464998 -0.3420288 38.6934639 1.46230927 44 5 C44.6875 7.625 44.6875 7.625 45 10 C44.443125 9.525625 43.88625 9.05125 43.3125 8.5625 C40.78632015 6.85562172 39.01343008 6.31720317 36 6 C35.34 6.33 34.68 6.66 34 7 C34 6.34 34 5.68 34 5 C32.700625 5.061875 32.700625 5.061875 31.375 5.125 C28 5 28 5 25.125 4 C21.21013068 2.74724182 18.09575842 2.85876695 14 3 C12.88997008 6.33008975 13.31483728 7.65983176 14 11 C13.67 11.66 13.34 12.32 13 13 C12.77377919 14.70363822 12.59111527 16.41328701 12.4375 18.125 C12.35371094 19.03507812 12.26992187 19.94515625 12.18359375 20.8828125 C12.12300781 21.58148438 12.06242188 22.28015625 12 23 C11.67 23 11.34 23 11 23 C10.95101562 21.99839844 10.90203125 20.99679688 10.8515625 19.96484375 C10.77645921 18.62237241 10.70091474 17.2799257 10.625 15.9375 C10.55539063 14.62652344 10.48578125 13.31554687 10.4140625 11.96484375 C10.00194564 8.01863043 9.20243433 4.75882927 8 1 C6.576875 1.309375 6.576875 1.309375 5.125 1.625 C4.09375 1.74875 3.0625 1.8725 2 2 C1.34 1.34 0.68 0.68 0 0 Z " fill="#899AC3" transform="translate(232,165)"/>
<path d="M0 0 C0.99 0.33 1.98 0.66 3 1 C0.46652752 5.78544801 -1.97245298 9.29041722 -6 13 C-6.66 13.66 -7.32 14.32 -8 15 C-8.86625 15.268125 -9.7325 15.53625 -10.625 15.8125 C-15.0388259 17.36551282 -20.81504779 19.63009559 -23 24 C-26.375 24.125 -26.375 24.125 -30 24 C-30.66 23.34 -31.32 22.68 -32 22 C-31.32453125 21.73445313 -30.6490625 21.46890625 -29.953125 21.1953125 C-29.06109375 20.84210938 -28.1690625 20.48890625 -27.25 20.125 C-26.36828125 19.77695313 -25.4865625 19.42890625 -24.578125 19.0703125 C-22.3259752 18.1353291 -20.16350541 17.12219206 -18 16 C-18 15.34 -18 14.68 -18 14 C-17.34 14 -16.68 14 -16 14 C-15.731875 13.4225 -15.46375 12.845 -15.1875 12.25 C-14.795625 11.5075 -14.40375 10.765 -14 10 C-13.649375 9.319375 -13.29875 8.63875 -12.9375 7.9375 C-10.31515525 5.31515525 -7.59563545 4.74367374 -4.05859375 3.80859375 C-1.64514712 3.08701119 -1.64514712 3.08701119 0 0 Z " fill="#978DBF" transform="translate(224,194)"/>
<path d="M0 0 C1.11058786 2.07309734 1.97398494 3.88618411 2.5 6.1875 C2.7475 7.0846875 2.7475 7.0846875 3 8 C3.66 8.33 4.32 8.66 5 9 C-5.35910568 13.14364227 -17.34664117 10.60161477 -27.375 6.3125 C-28.24125 5.879375 -29.1075 5.44625 -30 5 C-30 4.34 -30 3.68 -30 3 C-27.05840581 2.82696505 -25.04255331 2.98452607 -22.25 4 C-16.53100424 5.759691 -10.78819535 5.40319887 -5 4 C-4.34 4 -3.68 4 -3 4 C-2.34 3.01 -1.68 2.02 -1 1 C-0.67 0.67 -0.34 0.34 0 0 Z " fill="#A59BC7" transform="translate(64,188)"/>
<path d="M0 0 C0.99 0.33 1.98 0.66 3 1 C5.63804589 0.60602665 5.63804589 0.60602665 8 0 C6.989375 0.804375 5.97875 1.60875 4.9375 2.4375 C1.73283311 6.03993585 1.71505933 8.97771647 1.93579102 13.57250977 C2.21490682 17.06127729 2.57017551 20.5262366 3 24 C3.99 24.33 4.98 24.66 6 25 C5.34 25.99 4.68 26.98 4 28 C4.66 28.33 5.32 28.66 6 29 C4.02 29 2.04 29 0 29 C-3.13789517 21.41675334 -3.97866647 14.18433827 -3 6 C-1.4765625 2.57421875 -1.4765625 2.57421875 0 0 Z " fill="#D4B3BF" transform="translate(58,200)"/>
<path d="M0 0 C0 0.66 0 1.32 0 2 C-9.68129492 3.69209851 -19.32389343 4.57487819 -29.125 5.125 C-29.84323944 5.16735779 -30.56147888 5.20971558 -31.30148315 5.25335693 C-42.53979321 5.91385479 -53.74222596 6.26419809 -65 6 C-65 5.67 -65 5.34 -65 5 C-64.44014404 4.9498877 -63.88028809 4.89977539 -63.3034668 4.84814453 C-60.76392044 4.61586413 -58.22579309 4.37058215 -55.6875 4.125 C-54.80642578 4.04636719 -53.92535156 3.96773437 -53.01757812 3.88671875 C-51.74624023 3.76103516 -51.74624023 3.76103516 -50.44921875 3.6328125 C-49.27879028 3.52283936 -49.27879028 3.52283936 -48.0847168 3.41064453 C-45.70505767 3.08029789 -45.70505767 3.08029789 -43 1 C-40.14013672 0.78881836 -40.14013672 0.78881836 -36.6796875 0.83984375 C-34.7925 0.8562793 -34.7925 0.8562793 -32.8671875 0.87304688 C-30.89105469 0.90495117 -30.89105469 0.90495117 -28.875 0.9375 C-19.23525833 1.06711804 -9.55451525 -0.30821017 0 0 Z " fill="#667164" transform="translate(289,232)"/>
<path d="M0 0 C5 7.5 5 7.5 5 11 C6.7171521 10.95456055 6.7171521 10.95456055 8.46899414 10.90820312 C12.73866418 10.79546208 17.00836513 10.68393051 21.27807617 10.57275391 C23.12183475 10.52457854 24.96558493 10.47608041 26.80932617 10.42724609 C29.46791444 10.35688648 32.12653132 10.28770889 34.78515625 10.21875 C35.60210464 10.19687622 36.41905304 10.17500244 37.26075745 10.15246582 C38.79644017 10.11306266 40.33226627 10.07879098 41.86819458 10.05053711 C43.89693756 10.00244322 45.92424027 9.90202225 47.95092773 9.79882812 C48.95712158 9.86521484 49.96331543 9.93160156 51 10 C51.66 10.99 52.32 11.98 53 13 C51.84064941 13.02505615 50.68129883 13.0501123 49.48681641 13.07592773 C45.14427523 13.17081324 40.80186417 13.2708285 36.45947266 13.37231445 C34.58775905 13.41535903 32.71601381 13.45705238 30.84423828 13.49731445 C28.1382498 13.5557638 25.43241612 13.61923401 22.7265625 13.68359375 C21.49155502 13.70866249 21.49155502 13.70866249 20.2315979 13.73423767 C14.45094407 13.87834472 8.74557686 14.35361667 3 15 C0.74315457 9.63999211 -0.36263859 5.8022175 0 0 Z " fill="#7D5AA3" transform="translate(64,181)"/>
<path d="M0 0 C3.93619356 4.07579904 4.48289775 6.66396182 4.390625 12.26953125 C4.38496521 12.95053391 4.37930542 13.63153656 4.37347412 14.33317566 C4.35120481 16.49368645 4.30103318 18.65249646 4.25 20.8125 C4.22992247 22.28317905 4.21167389 23.75388429 4.1953125 25.22460938 C4.15478268 28.81757757 4.07649412 32.40690109 4 36 C-2.6 36 -9.2 36 -16 36 C-16 35.67 -16 35.34 -16 35 C-14.92878906 34.93941406 -13.85757813 34.87882812 -12.75390625 34.81640625 C-11.35675609 34.73201463 -9.95962143 34.64736594 -8.5625 34.5625 C-7.85544922 34.52318359 -7.14839844 34.48386719 -6.41992188 34.44335938 C-2.91309581 34.52375562 -2.91309581 34.52375562 0 33 C0.08843793 30.55169574 0.11528752 28.13179401 0.09765625 25.68359375 C0.0962413 24.95253922 0.09482635 24.22148468 0.09336853 23.46827698 C0.08775408 21.12464368 0.07519922 18.78110461 0.0625 16.4375 C0.05748686 14.85221492 0.05292363 13.26692834 0.04882812 11.68164062 C0.03777997 7.7877239 0.02050572 3.89387795 0 0 Z " fill="#283472" transform="translate(238,168)"/>
<path d="M0 0 C0 0.33 0 0.66 0 1 C-1.13888672 1.07347656 -1.13888672 1.07347656 -2.30078125 1.1484375 C-3.79158203 1.26058594 -3.79158203 1.26058594 -5.3125 1.375 C-6.79169922 1.47941406 -6.79169922 1.47941406 -8.30078125 1.5859375 C-11.21528433 1.83865472 -11.21528433 1.83865472 -14 4 C-14.94875 4.433125 -15.8975 4.86625 -16.875 5.3125 C-20.2489378 7.13442641 -22.37449511 9.23257593 -25 12 C-25.99 12.66 -26.98 13.32 -28 14 C-28.66 13.67 -29.32 13.34 -30 13 C-30 13.66 -30 14.32 -30 15 C-30.66 15 -31.32 15 -32 15 C-31.67 13.35 -31.34 11.7 -31 10 C-31.66 10 -32.32 10 -33 10 C-32.62111326 7.59355716 -32.31392888 6.3038563 -30.5390625 4.5859375 C-20.80227928 -1.57406821 -11.15565138 -1.31242957 0 0 Z " fill="#8B9BC0" transform="translate(137,116)"/>
<path d="M0 0 C0.66 0.33 1.32 0.66 2 1 C1.34 1.66 0.68 2.32 0 3 C0.99 3.33 1.98 3.66 3 4 C1.35375537 7.41534334 -0.52011857 10.66764307 -2.4375 13.9375 C-3.03433594 14.95714844 -3.63117188 15.97679687 -4.24609375 17.02734375 C-5.81852722 19.69242586 -7.40365476 22.34918818 -9 25 C-12.3 24.67 -15.6 24.34 -19 24 C-19 21.03 -19 18.06 -19 15 C-18.34 15 -17.68 15 -17 15 C-17 17.64 -17 20.28 -17 23 C-15.02 23 -13.04 23 -11 23 C-10.9690625 21.1128125 -10.9690625 21.1128125 -10.9375 19.1875 C-10.14897574 11.76124914 -5.40537921 5.00743718 0 0 Z " fill="#8894BC" transform="translate(114,124)"/>
<path d="M0 0 C0.66 0 1.32 0 2 0 C2.495 3.96 2.495 3.96 3 8 C-2.83799592 9.69832609 -7.93107371 10.25287193 -14 10 C-14.268125 10.61875 -14.53625 11.2375 -14.8125 11.875 C-16 14 -16 14 -19 16 C-23.22145032 15.62475997 -27.0212172 14.42099386 -31 13 C-31 12.67 -31 12.34 -31 12 C-29.89591797 12.06960937 -29.89591797 12.06960937 -28.76953125 12.140625 C-22.54130266 12.37099541 -19.74141623 12.25511713 -15 8 C-12.39413878 7.09307822 -9.78460023 6.38370124 -7.109375 5.7109375 C-4.81275418 5.21279875 -4.81275418 5.21279875 -4 3 C-3.01 3 -2.02 3 -1 3 C-0.67 2.01 -0.34 1.02 0 0 Z " fill="#513886" transform="translate(145,180)"/>
<path d="M0 0 C3.86882056 1.46748366 5.29173197 3.25807955 7 7 C7.51692769 9.67907714 7.76891068 12.27314602 8 15 C10.97 15.495 10.97 15.495 14 16 C14 16.33 14 16.66 14 17 C18.29 17 22.58 17 27 17 C27.33 17.66 27.66 18.32 28 19 C27.41508789 19.02916504 26.83017578 19.05833008 26.22753906 19.08837891 C23.56575655 19.23778082 20.90888085 19.43089437 18.25 19.625 C17.32960938 19.67011719 16.40921875 19.71523437 15.4609375 19.76171875 C12.84015775 19.97062148 10.51241478 20.21947648 8 21 C5.44116683 23.91713391 5.44116683 23.91713391 4 27 C3.34 27 2.68 27 2 27 C1.85583218 23.90039195 1.75628887 21.563582 3 18.6875 C4.45101094 14.7879081 4.50782404 11.11486834 4 7 C2.70208018 4.10960374 2.70208018 4.10960374 1 2 C0.67 1.34 0.34 0.68 0 0 Z " fill="#676590" transform="translate(271,171)"/>
<path d="M0 0 C9.9 0 19.8 0 30 0 C27.22824309 2.77175691 23.97394915 3.44986847 20.3125 4.5625 C19.61705078 4.78357422 18.92160156 5.00464844 18.20507812 5.23242188 C13.80750696 6.59152183 9.57201543 7.46669807 5 8 C4.731875 7.195625 4.46375 6.39125 4.1875 5.5625 C3.795625 4.716875 3.40375 3.87125 3 3 C2.01 2.67 1.02 2.34 0 2 C0 1.34 0 0.68 0 0 Z M6 1 C5.67 2.32 5.34 3.64 5 5 C6.65 4.67 8.3 4.34 10 4 C8.68 3.01 7.36 2.02 6 1 Z " fill="#D497A1" transform="translate(76,196)"/>
<path d="M0 0 C-3.5494282 2.36628546 -6.56078879 2.637705 -10.6875 3.0625 C-11.44498535 3.14411377 -12.2024707 3.22572754 -12.98291016 3.30981445 C-15.32081964 3.5535188 -17.65976181 3.77987119 -20 4 C-20.67853027 4.06606445 -21.35706055 4.13212891 -22.05615234 4.20019531 C-37.08863487 5.6039777 -52.00605391 4.4066177 -67 3 C-63.86375725 0.9091715 -63.20141921 0.75441446 -59.64306641 0.78881836 C-58.3249144 0.79388649 -58.3249144 0.79388649 -56.98013306 0.79905701 C-56.03020477 0.81251663 -55.08027649 0.82597626 -54.1015625 0.83984375 C-53.11562103 0.84504532 -52.12967957 0.85024689 -51.11386108 0.85560608 C-47.95075864 0.8734345 -44.78797818 0.90453727 -41.625 0.9375 C-37.49221177 0.97426858 -33.35945211 1.004631 -29.2265625 1.02734375 C-28.23497131 1.03293304 -27.24338013 1.03852234 -26.22174072 1.04428101 C-19.93595108 1.05729246 -13.75940662 0.84566342 -7.50146484 0.22094727 C-4.98718663 -0.00113177 -2.5226307 -0.0366711 0 0 Z " fill="#69324F" transform="translate(149,234)"/>
<path d="M0 0 C0.33 0 0.66 0 1 0 C1 8.25 1 16.5 1 25 C1.66 25.33 2.32 25.66 3 26 C0.40742331 26.86419223 -1.34037707 27.17580932 -4.01171875 27.31640625 C-4.76904297 27.35830078 -5.52636719 27.40019531 -6.30664062 27.44335938 C-7.09232422 27.48267578 -7.87800781 27.52199219 -8.6875 27.5625 C-9.48478516 27.60568359 -10.28207031 27.64886719 -11.10351562 27.69335938 C-13.06881447 27.79927368 -15.03438496 27.90012551 -17 28 C-16.67 27.34 -16.34 26.68 -16 26 C-15.34 26 -14.68 26 -14 26 C-13.731875 25.195625 -13.46375 24.39125 -13.1875 23.5625 C-12.5996875 22.2940625 -12.5996875 22.2940625 -12 21 C-9 20 -9 20 -7.0625 20.5 C-4.6753059 21.24768713 -4.6753059 21.24768713 -1 20 C-0.67 13.4 -0.34 6.8 0 0 Z " fill="#47549F" transform="translate(237,176)"/>
<path d="M0 0 C7.42006461 0.0925369 14.83981058 0.19987717 22.25952148 0.31738281 C24.78225886 0.35560365 27.30504945 0.39046842 29.82788086 0.421875 C33.45966577 0.46767485 37.09108652 0.5256457 40.72265625 0.5859375 C41.84583755 0.59748871 42.96901886 0.60903992 44.12623596 0.62094116 C49.78609902 0.72697811 54.65426096 1.09438946 60 3 C60 3.33 60 3.66 60 4 C59.41888458 3.92894547 58.83776917 3.85789093 58.23904419 3.78468323 C51.42774879 3.0197961 44.71660195 2.86911683 37.8671875 2.90234375 C36.74933868 2.9037587 35.63148987 2.90517365 34.47976685 2.90663147 C30.94481617 2.91218378 27.40993121 2.92472721 23.875 2.9375 C21.46354259 2.94252117 19.05208417 2.94708299 16.640625 2.95117188 C10.76039463 2.96213754 4.88020201 2.97882747 -1 3 C-0.67 2.01 -0.34 1.02 0 0 Z " fill="#E4E7EA" transform="translate(220,204)"/>
<path d="M0 0 C2.70894767 -0.08144943 5.41541263 -0.14070614 8.125 -0.1875 C8.88554687 -0.21263672 9.64609375 -0.23777344 10.4296875 -0.26367188 C16.47481586 -0.34184164 20.65617377 0.7901067 25.1875 5.0625 C30.65688798 13.92668051 31.22843646 23.99000719 29 34 C26.48386162 30.22579243 26.58934159 27.00988878 26.4375 22.625 C26.29600962 15.72927231 26.29600962 15.72927231 25 9 C22.55503957 7.28288757 22.55503957 7.28288757 20 6 C19.67 5.34 19.34 4.68 19 4 C12.84385029 1.67434344 6.52427991 1.40709793 0 1 C0 0.67 0 0.34 0 0 Z " fill="#C3A885" transform="translate(261,142)"/>
<path d="M0 0 C1.89611434 0.14213297 3.79188394 0.28886907 5.6875 0.4375 C6.74324219 0.51871094 7.79898438 0.59992188 8.88671875 0.68359375 C12 1 12 1 14.07617188 1.5 C18.33973284 2.22910595 22.57588728 2.23750596 26.89453125 2.31640625 C27.84188644 2.33718735 28.78924164 2.35796844 29.76530457 2.37937927 C32.7809651 2.44457778 35.7967101 2.50362132 38.8125 2.5625 C40.86133674 2.60571348 42.91016504 2.64932866 44.95898438 2.69335938 C49.97257047 2.80022866 54.98624123 2.90157931 60 3 C60 3.33 60 3.66 60 4 C58.89076172 4.02505615 57.78152344 4.0501123 56.63867188 4.07592773 C52.49371269 4.17063477 48.3488966 4.27069671 44.20410156 4.37231445 C42.41572434 4.41542539 40.62731224 4.45711546 38.83886719 4.49731445 C36.25705489 4.55559951 33.67541432 4.61912088 31.09375 4.68359375 C30.30383667 4.70030624 29.51392334 4.71701874 28.70007324 4.73423767 C24.97552873 4.83195984 21.34787099 5.0491851 17.65600586 5.56396484 C13.55415726 6.05317363 10.96268213 5.47542479 7.0625 4.1875 C5.93972656 3.83042969 4.81695312 3.47335938 3.66015625 3.10546875 C1 2 1 2 0 0 Z " fill="#AE6D88" transform="translate(63,231)"/>
<path d="M0 0 C0.33 0 0.66 0 1 0 C1.33 7.59 1.66 15.18 2 23 C5.71279469 24.23759823 9.31306346 24.35608897 13.1875 24.5625 C13.93708984 24.60568359 14.68667969 24.64886719 15.45898438 24.69335938 C17.30578375 24.79922685 19.15286834 24.9000976 21 25 C16.68786684 27.87475544 14.05885355 29.27274356 8.8125 29.1875 C7.93207031 29.18105469 7.05164063 29.17460937 6.14453125 29.16796875 C4 29 4 29 3 28 C2.67 28.66 2.34 29.32 2 30 C1.34 30 0.68 30 0 30 C0 20.1 0 10.2 0 0 Z " fill="#515DA1" transform="translate(242,173)"/>
<path d="M0 0 C1.15002754 0.00007553 1.15002754 0.00007553 2.32328796 0.00015259 C4.80163109 0.00374509 7.27955477 0.02261719 9.7578125 0.04296875 C11.46736529 0.05049946 13.17691938 0.05774052 14.88647461 0.06469727 C50.82594737 0.26349804 50.82594737 0.26349804 59.8828125 2.23046875 C58.0703125 3.29296875 58.0703125 3.29296875 55.8828125 4.23046875 C54.8928125 3.90046875 53.9028125 3.57046875 52.8828125 3.23046875 C49.64413861 2.88499377 46.38641669 2.80001085 43.1328125 2.66796875 C42.11960937 2.62551025 41.10640625 2.58305176 40.0625 2.53930664 C23.34710879 1.93415298 6.6060172 2.14751635 -10.1171875 2.23046875 C-10.1171875 3.22046875 -10.1171875 4.21046875 -10.1171875 5.23046875 C-16.7421875 6.23046875 -16.7421875 6.23046875 -20.1171875 6.23046875 C-14.10616578 0.76590355 -7.89935445 -0.07879628 0 0 Z " fill="#F4EBDF" transform="translate(249.1171875,140.76953125)"/>
<path d="M0 0 C2.8203125 0.0234375 2.8203125 0.0234375 6.125 0.375 C7.22070312 0.48585937 8.31640625 0.59671875 9.4453125 0.7109375 C10.70988281 0.85402344 10.70988281 0.85402344 12 1 C11.67 1.99 11.34 2.98 11 4 C10.01 4.33 9.02 4.66 8 5 C7.34 4.67 6.68 4.34 6 4 C4.00039988 3.960008 1.99952758 3.95653201 0 4 C-0.93423645 7.01031744 -1.04449911 7.86650268 0 11 C-0.33 11.66 -0.66 12.32 -1 13 C-2.33333333 13.33333333 -3.66666667 13.66666667 -5 14 C-6.14814997 16.29629994 -6.30769809 18.07698086 -6.5625 20.625 C-6.64628906 21.44226563 -6.73007813 22.25953125 -6.81640625 23.1015625 C-6.87699219 23.72804687 -6.93757813 24.35453125 -7 25 C-7.66 25 -8.32 25 -9 25 C-8.9665807 15.42537014 -6.97770096 6.97770096 0 0 Z " fill="#9180B3" transform="translate(72,147)"/>
<path d="M0 0 C0 0.66 0 1.32 0 2 C-14.64811042 5.40576834 -29.36883202 5.13119758 -44.3125 5.0625 C-46.22851445 5.05747279 -48.14453018 5.05291206 -50.06054688 5.04882812 C-54.70706353 5.03792424 -59.35351721 5.02072757 -64 5 C-64 4.67 -64 4.34 -64 4 C-63.15219971 3.98541748 -62.30439941 3.97083496 -61.4309082 3.95581055 C-42.26551229 3.59103773 -23.40765375 2.54433567 -4.36547852 0.25952148 C-2 0 -2 0 0 0 Z " fill="#A05375" transform="translate(154,231)"/>
<path d="M0 0 C8.47650936 -0.29103895 17.78969401 0.50942593 24.48046875 6.15625 C21.68192259 5.64742343 19.11202299 5.02842188 16.41796875 4.09375 C5.25717394 0.84961442 -8.88399866 2.97876626 -19.51953125 7.15625 C-20.53015625 7.548125 -21.54078125 7.94 -22.58203125 8.34375 C-23.22140625 8.611875 -23.86078125 8.88 -24.51953125 9.15625 C-20.27658033 3.75613065 -13.2210791 1.37815185 -6.58203125 0.40625 C-4.38959443 0.23050356 -2.19537284 0.13614715 0 0 Z " fill="#F0EEF0" transform="translate(184.51953125,122.84375)"/>
<path d="M0 0 C4.71391399 -0.074557 9.42747929 -0.12879273 14.1418457 -0.16479492 C15.74314356 -0.17981466 17.34440075 -0.20023663 18.94555664 -0.22631836 C21.25677571 -0.26300438 23.56744756 -0.27979435 25.87890625 -0.29296875 C26.58648575 -0.30845261 27.29406525 -0.32393646 28.02308655 -0.33988953 C34.44464998 -0.3420288 38.6934639 1.46230927 44 5 C44.6875 7.625 44.6875 7.625 45 10 C44.443125 9.54625 43.88625 9.0925 43.3125 8.625 C40.94686561 6.96266232 38.70984342 5.97855457 36 5 C36 4.34 36 3.68 36 3 C27.09 2.34 18.18 1.68 9 1 C8.67 1.66 8.34 2.32 8 3 C8 2.34 8 1.68 8 1 C6.576875 1.309375 6.576875 1.309375 5.125 1.625 C4.09375 1.74875 3.0625 1.8725 2 2 C1.34 1.34 0.68 0.68 0 0 Z " fill="#91888F" transform="translate(232,165)"/>
<path d="M0 0 C7.59 0.33 15.18 0.66 23 1 C23.33 2.32 23.66 3.64 24 5 C23.01 4.67 22.02 4.34 21 4 C21 4.66 21 5.32 21 6 C21.66 6.33 22.32 6.66 23 7 C21.96166016 6.7834375 21.96166016 6.7834375 20.90234375 6.5625 C17.79783109 5.96081787 14.68938117 5.47142614 11.5625 5 C7.3688499 4.36624886 3.18205143 3.70647023 -1 3 C-0.67 2.01 -0.34 1.02 0 0 Z " fill="#C1A8B3" transform="translate(129,193)"/>
<path d="M0 0 C1.31223496 3.93670488 0.24296256 6.12488144 -1 10 C-1.66 10 -2.32 10 -3 10 C-3 11.32 -3 12.64 -3 14 C-4.99954746 14.04254356 -7.00041636 14.04080783 -9 14 C-10.66342837 12.33657163 -10.36048097 10.2174291 -10.5625 7.9375 C-10.64628906 7.01839844 -10.73007812 6.09929687 -10.81640625 5.15234375 C-10.90728516 4.08693359 -10.90728516 4.08693359 -11 3 C-10.01 2.67 -9.02 2.34 -8 2 C-8 3.65 -8 5.3 -8 7 C-6.12119128 6.95231597 -6.12119128 6.95231597 -4 6 C-1.73674754 3.02236957 -1.73674754 3.02236957 0 0 Z " fill="#9F7570" transform="translate(288,173)"/>
<path d="M0 0 C7.38461538 -0.49230769 7.38461538 -0.49230769 10.5 2 C10.995 2.66 11.49 3.32 12 4 C12.33 3.34 12.66 2.68 13 2 C16.93673644 3.31224548 19.22719294 4.91910327 22 8 C21.67 8.66 21.34 9.32 21 10 C20.154375 9.54625 19.30875 9.0925 18.4375 8.625 C12.39534619 5.97999076 5.50000839 5.71106913 -1 5 C-1 4.67 -1 4.34 -1 4 C0.65 4 2.3 4 4 4 C4 3.01 4 2.02 4 1 C2.68 0.67 1.36 0.34 0 0 Z " fill="#6A7298" transform="translate(132,118)"/>
<path d="M0 0 C0 1.32 0 2.64 0 4 C-16.8929385 3.03644647 -16.8929385 3.03644647 -24 2 C-24 1.34 -24 0.68 -24 0 C-15.88611956 -1.21521251 -8.14648632 -0.76299944 0 0 Z " fill="#E0A7AA" transform="translate(96,208)"/>
<path d="M0 0 C0.433125 0.45375 0.86625 0.9075 1.3125 1.375 C4.80920356 4.74219603 7.74510821 5.94362771 12.5 6.0625 C13.325 6.041875 14.15 6.02125 15 6 C17 6 19 6 21 6 C21 6.99 21 7.98 21 9 C13.22859609 10.09141544 7.2385335 10.23540512 0 7 C0 4.69 0 2.38 0 0 Z " fill="#9BAA93" transform="translate(203,227)"/>
<path d="M0 0 C0 0.33 0 0.66 0 1 C-1.19238281 1.03738281 -2.38476562 1.07476562 -3.61328125 1.11328125 C-5.179719 1.17894032 -6.74612384 1.24538768 -8.3125 1.3125 C-9.09818359 1.33505859 -9.88386719 1.35761719 -10.69335938 1.38085938 C-11.45068359 1.41630859 -12.20800781 1.45175781 -12.98828125 1.48828125 C-14.03302612 1.52755737 -14.03302612 1.52755737 -15.09887695 1.56762695 C-17.50747519 2.11541525 -18.35023235 3.21335207 -20 5 C-22.375 5.73046875 -22.375 5.73046875 -25 6.1875 C-25.86625 6.34605469 -26.7325 6.50460938 -27.625 6.66796875 C-30 7 -30 7 -33 7 C-22.48564724 -1.25571402 -12.9647897 -1.52526938 0 0 Z " fill="#C1C9DB" transform="translate(137,116)"/>
<path d="M0 0 C-1.4160599 0.79275148 -2.83287553 1.58415312 -4.25 2.375 C-5.03890625 2.81585938 -5.8278125 3.25671875 -6.640625 3.7109375 C-7.80851562 4.34902344 -7.80851562 4.34902344 -9 5 C-10.06734375 5.60328125 -10.06734375 5.60328125 -11.15625 6.21875 C-13 7 -13 7 -15.25 6.125 C-15.8275 5.75375 -16.405 5.3825 -17 5 C-11.64929926 -2.03234954 -8.29694364 -4.29152257 0 0 Z " fill="#7D8CB4" transform="translate(130,122)"/>
<path d="M0 0 C2.31 0.33 4.62 0.66 7 1 C7.08096803 2.45742463 7.13917774 3.91612807 7.1875 5.375 C7.22230469 6.18710938 7.25710937 6.99921875 7.29296875 7.8359375 C7.19628906 8.55007812 7.09960938 9.26421875 7 10 C6.01 10.66 5.02 11.32 4 12 C3.34 11.67 2.68 11.34 2 11 C1.67 11.99 1.34 12.98 1 14 C0.67 9.38 0.34 4.76 0 0 Z " fill="#8B94B6" transform="translate(230,165)"/>
<path d="M0 0 C2 1 2 1 2.8515625 2.92578125 C3.10679687 3.71339844 3.36203125 4.50101563 3.625 5.3125 C4.01558594 6.48232422 4.01558594 6.48232422 4.4140625 7.67578125 C5 10 5 10 5 14 C13.25 14 21.5 14 30 14 C30 14.33 30 14.66 30 15 C25.70834738 15.02891949 21.41671964 15.04677118 17.125 15.0625 C15.90167969 15.07087891 14.67835938 15.07925781 13.41796875 15.08789062 C11.66806641 15.09272461 11.66806641 15.09272461 9.8828125 15.09765625 C8.26463623 15.10551147 8.26463623 15.10551147 6.61376953 15.11352539 C4 15 4 15 2 14 C0.52819204 9.17574056 -0.25376143 5.07522852 0 0 Z " fill="#BBAAA2" transform="translate(226,150)"/>
<path d="M0 0 C1.32 1.32 2.64 2.64 4 4 C4.515625 3.67 5.03125 3.34 5.5625 3 C8.78026512 1.67989123 11.5570528 1.86757895 15 2 C12.42215154 4.64752004 10.08351902 6.94432065 7 9 C5.68 8.34 4.36 7.68 3 7 C3 8.98 3 10.96 3 13 C2.01 12.67 1.02 12.34 0 12 C0 8.04 0 4.08 0 0 Z " fill="#CDB994" transform="translate(224,144)"/>
<path d="M0 0 C-0.66 1.32 -1.32 2.64 -2 4 C-3.58323688 4.027193 -5.16661062 4.04648306 -6.75 4.0625 C-8.07257813 4.07990234 -8.07257813 4.07990234 -9.421875 4.09765625 C-11.7818838 4.00826198 -13.74498524 3.66912821 -16 3 C-16 2.34 -16 1.68 -16 1 C-16.66 0.67 -17.32 0.34 -18 0 C-11.97520914 -0.98363932 -5.92724152 -1.89671729 0 0 Z " fill="#D09CB2" transform="translate(137,196)"/>
<path d="M0 0 C0.33 0 0.66 0 1 0 C2.22727273 8.18181818 2.22727273 8.18181818 1 12 C1 13.32 1 14.64 1 16 C0.01 16 -0.98 16 -2 16 C-4.65788293 13.34211707 -4.85384044 11.72706873 -5 8 C-3.125 5.3125 -3.125 5.3125 -1 3 C-0.67 2.01 -0.34 1.02 0 0 Z " fill="#A294C7" transform="translate(87,160)"/>
<path d="M0 0 C0.99 0.33 1.98 0.66 3 1 C2.071875 1.515625 1.14375 2.03125 0.1875 2.5625 C-3.59173021 5.03731505 -4.54881819 7.807697 -6 12 C-7.65 12 -9.3 12 -11 12 C-11.12375 12.763125 -11.2475 13.52625 -11.375 14.3125 C-12 17 -12 17 -14 20 C-13.31515453 12.9803339 -10.59386325 8.16976008 -5.375 3.625 C-3.59639572 2.17260262 -2.0555845 1.02779225 0 0 Z " fill="#E1E0E3" transform="translate(37,148)"/>
<path d="M0 0 C0.33 0 0.66 0 1 0 C1 8.25 1 16.5 1 25 C1.66 25.33 2.32 25.66 3 26 C0.40742331 26.86419223 -1.34037707 27.17580932 -4.01171875 27.31640625 C-4.76904297 27.35830078 -5.52636719 27.40019531 -6.30664062 27.44335938 C-7.09232422 27.48267578 -7.87800781 27.52199219 -8.6875 27.5625 C-9.48478516 27.60568359 -10.28207031 27.64886719 -11.10351562 27.69335938 C-13.06881447 27.79927368 -15.03438496 27.90012551 -17 28 C-15.84375 26.5078125 -15.84375 26.5078125 -14 25 C-11.40625 24.7421875 -11.40625 24.7421875 -8.5 24.875 C-5.19973502 25.0080752 -3.1614716 25.05382387 0 24 C0 16.08 0 8.16 0 0 Z " fill="#464D91" transform="translate(237,176)"/>
<path d="M0 0 C0.33 0 0.66 0 1 0 C1.19466332 1.79090253 1.38051213 3.58276505 1.5625 5.375 C1.66691406 6.37273437 1.77132812 7.37046875 1.87890625 8.3984375 C2 11 2 11 1 13 C1.66 13 2.32 13 3 13 C2.21681311 16.91593446 0.60820142 20.36406635 -1 24 C-1.66 24 -2.32 24 -3 24 C-2 16 -1 8 0 0 Z " fill="#A192B1" transform="translate(220,168)"/>
<path d="M0 0 C2.4375 0.8125 2.4375 0.8125 5 2 C6.06987652 5.20962956 6.20081156 7.68899262 6.25 11.0625 C6.27578125 12.12597656 6.3015625 13.18945312 6.328125 14.28515625 C6.16570312 15.62900391 6.16570312 15.62900391 6 17 C5.01 17.66 4.02 18.32 3 19 C3.020625 18.2575 3.04125 17.515 3.0625 16.75 C3.00520432 14.22899006 2.62199344 12.41886336 2 10 C1.82179463 8.62644781 1.65622025 7.251226 1.5 5.875 C1.24352779 2.212826 1.24352779 2.212826 0 0 Z " fill="#B3A9C0" transform="translate(318,154)"/>
<path d="M0 0 C2.31 0 4.62 0 7 0 C7 0.33 7 0.66 7 1 C11.29 1 15.58 1 20 1 C20.33 1.66 20.66 2.32 21 3 C13.63959083 3.79725902 6.40239645 4.12886183 -1 4 C-0.67 2.68 -0.34 1.36 0 0 Z " fill="#5C5070" transform="translate(278,187)"/>
<path d="M0 0 C5.77759884 -0.12036664 11.27959989 0.1679418 17 1 C16.01 2.485 16.01 2.485 15 4 C9.85378013 4.34889626 5.07318687 3.84553115 0 3 C0 2.01 0 1.02 0 0 Z " fill="#7F729F" transform="translate(48,195)"/>
<path d="M0 0 C1.32 0 2.64 0 4 0 C4 5.28 4 10.56 4 16 C3.67 15.34 3.34 14.68 3 14 C2.34 14 1.68 14 1 14 C0.04738513 9.23692563 -0.08333357 4.8333472 0 0 Z " fill="#D5CDE5" transform="translate(59,168)"/>
<path d="M0 0 C4.81430721 -0.56638908 7.20307814 1.17438373 11 4 C10.67 4.66 10.34 5.32 10 6 C7.24921116 6.91692961 5.64051087 7.10886083 2.8125 7.0625 C0.9253125 7.0315625 0.9253125 7.0315625 -1 7 C-0.01 6.67 0.98 6.34 2 6 C1.34 4.02 0.68 2.04 0 0 Z " fill="#959E89" transform="translate(279,210)"/>
<path d="M0 0 C-2 3 -2 3 -3.84765625 3.4765625 C-4.94400391 3.55003906 -4.94400391 3.55003906 -6.0625 3.625 C-7.26132813 3.72361328 -7.26132813 3.72361328 -8.484375 3.82421875 C-9.72960937 3.91123047 -9.72960937 3.91123047 -11 4 C-12.60507588 4.13546023 -14.2093485 4.28090076 -15.8125 4.4375 C-16.52019531 4.49808594 -17.22789062 4.55867187 -17.95703125 4.62109375 C-20.24505081 5.04544919 -21.97365054 5.87526221 -24 7 C-24.66 6.01 -25.32 5.02 -26 4 C-24.85402344 3.80664062 -23.70804688 3.61328125 -22.52734375 3.4140625 C-20.99736117 3.15124341 -19.46741518 2.88821121 -17.9375 2.625 C-17.18533203 2.49867188 -16.43316406 2.37234375 -15.65820312 2.2421875 C-12.0507748 1.61752459 -8.56721671 0.91604236 -5.06640625 -0.1640625 C-2 -1 -2 -1 0 0 Z " fill="#BB707B" transform="translate(157,206)"/>
<path d="M0 0 C0.33 0 0.66 0 1 0 C1 3.63 1 7.26 1 11 C-5.6 11 -12.2 11 -19 11 C-19 10.67 -19 10.34 -19 10 C-14.05 9.67 -9.1 9.34 -4 9 C-3.34 7.35 -2.68 5.7 -2 4 C-1.34786461 2.65949948 -0.68620031 1.32338632 0 0 Z " fill="#293171" transform="translate(241,193)"/>
<path d="M0 0 C1 3 1 3 -0.1875 5.5 C-2.00054954 8.00075799 -3.31178885 9.49776436 -6 11 C-8.75 11.1875 -8.75 11.1875 -11 11 C-10.67 10.34 -10.34 9.68 -10 9 C-10.66 8.34 -11.32 7.68 -12 7 C-9.66666667 7 -7.33333333 7 -5 7 C-4.731875 6.030625 -4.46375 5.06125 -4.1875 4.0625 C-3.5996875 2.5465625 -3.5996875 2.5465625 -3 1 C-2.01 0.67 -1.02 0.34 0 0 Z " fill="#978ABA" transform="translate(317,177)"/>
<path d="M0 0 C2.70108504 0.090916 5.36930311 0.23740766 8.0625 0.4375 C9.20041992 0.51581055 9.20041992 0.51581055 10.36132812 0.59570312 C12.24121722 0.72575835 14.12065685 0.86228038 16 1 C16 1.66 16 2.32 16 3 C11.66528234 4.22160225 7.47841701 4.49303674 3 4 C0.4375 2.5 0.4375 2.5 -1 1 C-0.67 0.67 -0.34 0.34 0 0 Z " fill="#B4CC98" transform="translate(214,217)"/>
<path d="M0 0 C2.31 0.66 4.62 1.32 7 2 C5.58480285 4.0343459 4.45017877 4.90410393 2.01953125 5.421875 C0.01823046 5.66273952 -1.9909944 5.83532741 -4 6 C-4.66 4.68 -5.32 3.36 -6 2 C-4.7934375 1.7834375 -4.7934375 1.7834375 -3.5625 1.5625 C-1.07896294 1.25864751 -1.07896294 1.25864751 0 0 Z " fill="#C4BFCC" transform="translate(171,208)"/>
<path d="M0 0 C1.76462683 3.08809695 2 4.23312136 2 8 C-3.57067277 9.59162079 -8.21101581 10.20674944 -14 10 C-14 9.67 -14 9.34 -14 9 C-13.39671875 8.80664062 -12.7934375 8.61328125 -12.171875 8.4140625 C-11.37265625 8.15367187 -10.5734375 7.89328125 -9.75 7.625 C-8.96109375 7.36976563 -8.1721875 7.11453125 -7.359375 6.8515625 C-5.11257352 6.04063084 -3.05847087 5.21302748 -1 4 C-0.19471111 1.94999129 -0.19471111 1.94999129 0 0 Z " fill="#8484A9" transform="translate(146,180)"/>
<path d="M0 0 C0.33 0 0.66 0 1 0 C1.33 5.28 1.66 10.56 2 16 C2.99 16.33 3.98 16.66 5 17 C4.34 17.99 3.68 18.98 3 20 C3.66 20.33 4.32 20.66 5 21 C3.35 21 1.7 21 0 21 C0 14.07 0 7.14 0 0 Z " fill="#D49CAB" transform="translate(59,208)"/>
<path d="M0 0 C6.81151829 0.24240279 11.68055567 0.54316826 17 5 C16.67 5.66 16.34 6.32 16 7 C15.46375 6.505 14.9275 6.01 14.375 5.5 C11.37505704 3.60529918 9.48955396 3.69656053 6 4 C5.01 4.495 5.01 4.495 4 5 C1.875 4.0625 1.875 4.0625 0 3 C0 2.01 0 1.02 0 0 Z " fill="#ACB7A2" transform="translate(272,207)"/>
<path d="M0 0 C0.33 0 0.66 0 1 0 C1.10696872 4.59965514 1.0887918 8.82241639 -1 13 C1.97 13 4.94 13 8 13 C7.67 13.66 7.34 14.32 7 15 C2.71 15 -1.58 15 -6 15 C-5.67 14.01 -5.34 13.02 -5 12 C-4.34 12 -3.68 12 -3 12 C-2.67 9.69 -2.34 7.38 -2 5 C-1.34 5 -0.68 5 0 5 C0 3.35 0 1.7 0 0 Z " fill="#957BA8" transform="translate(290,171)"/>
<path d="M0 0 C0.99 0 1.98 0 3 0 C3.02725341 1.7290774 3.04650987 3.45828176 3.0625 5.1875 C3.07410156 6.15042969 3.08570313 7.11335937 3.09765625 8.10546875 C3.00486622 10.85576513 2.62111685 13.32479591 2 16 C-0.42130331 12.36804504 -0.21022785 10.61650652 -0.125 6.3125 C-0.09792969 4.54326172 -0.09792969 4.54326172 -0.0703125 2.73828125 C-0.04710937 1.83464844 -0.02390625 0.93101562 0 0 Z " fill="#B28D80" transform="translate(288,160)"/>
<path d="M0 0 C2.475 0.99 2.475 0.99 5 2 C5 2.66 5 3.32 5 4 C4.360625 4.12375 3.72125 4.2475 3.0625 4.375 C2.0415625 4.684375 2.0415625 4.684375 1 5 C-0.14814997 7.29629994 -0.30769809 9.07698086 -0.5625 11.625 C-0.64628906 12.44226563 -0.73007813 13.25953125 -0.81640625 14.1015625 C-0.87699219 14.72804687 -0.93757813 15.35453125 -1 16 C-1.66 16 -2.32 16 -3 16 C-2.88544319 14.08268082 -2.75793742 12.1661325 -2.625 10.25 C-2.55539063 9.18265625 -2.48578125 8.1153125 -2.4140625 7.015625 C-2.0271777 4.19793568 -1.44313834 2.4169634 0 0 Z " fill="#ACA2C7" transform="translate(66,156)"/>
<path d="M0 0 C0.33 1.32 0.66 2.64 1 4 C2.32 4.33 3.64 4.66 5 5 C-0.625 8 -0.625 8 -4 8 C-4 7.34 -4 6.68 -4 6 C-4.66 5.67 -5.32 5.34 -6 5 C-5.67 4.34 -5.34 3.68 -5 3 C-3.68 3 -2.36 3 -1 3 C-0.67 2.01 -0.34 1.02 0 0 Z " fill="#8E7FBA" transform="translate(94,144)"/>
<path d="M0 0 C0.78375 0.165 1.5675 0.33 2.375 0.5 C5.09522679 1.23945377 5.09522679 1.23945377 8 0 C7.67 1.65 7.34 3.3 7 5 C3.30458414 5.95024979 0.69541586 5.95024979 -3 5 C-1.125 1.125 -1.125 1.125 0 0 Z " fill="#5A65A5" transform="translate(229,192)"/>
<path d="M0 0 C0.4125 0.495 0.825 0.99 1.25 1.5 C3.12202338 3.43386092 3.12202338 3.43386092 7 3 C7 2.34 7 1.68 7 1 C8.32 1.33 9.64 1.66 11 2 C10.01 2 9.02 2 8 2 C7.67 2.99 7.34 3.98 7 5 C4.49609375 5.94921875 4.49609375 5.94921875 1.4375 6.6875 C0.42558594 6.93886719 -0.58632812 7.19023437 -1.62890625 7.44921875 C-2.41136719 7.63097656 -3.19382813 7.81273437 -4 8 C-4 7.01 -4 6.02 -4 5 C-3.34 4.67 -2.68 4.34 -2 4 C-0.86649466 1.98330173 -0.86649466 1.98330173 0 0 Z " fill="#484999" transform="translate(133,181)"/>
<path d="M0 0 C-1.5625 2.5 -1.5625 2.5 -4 5 C-7.625 5.4375 -7.625 5.4375 -11 5 C-11.66 4.34 -12.32 3.68 -13 3 C-11.40084119 2.30093058 -9.79544955 1.61610532 -8.1875 0.9375 C-7.29417969 0.55464844 -6.40085938 0.17179688 -5.48046875 -0.22265625 C-3 -1 -3 -1 0 0 Z " fill="#756F89" transform="translate(205,213)"/>
<path d="M0 0 C0.99 0 1.98 0 3 0 C3 0.99 3 1.98 3 3 C3.99 3.33 4.98 3.66 6 4 C-1.92 4 -9.84 4 -18 4 C-18 3.67 -18 3.34 -18 3 C-9.09 2.01 -9.09 2.01 0 1 C0 0.67 0 0.34 0 0 Z " fill="#35396C" transform="translate(266,201)"/>
<path d="M0 0 C0.33 0 0.66 0 1 0 C1.19388736 4.84718393 0.68831526 8.46265273 -1 13 C-1 13.66 -1 14.32 -1 15 C-1.66 15 -2.32 15 -3 15 C-3 10.71 -3 6.42 -3 2 C-2.34 1.67 -1.68 1.34 -1 1 C-0.67 1.99 -0.34 2.98 0 4 C0 2.68 0 1.36 0 0 Z " fill="#5E67AC" transform="translate(275,180)"/>
<path d="M0 0 C2.41700987 0.14129287 4.83350429 0.28786487 7.25 0.4375 C8.27287109 0.49647461 8.27287109 0.49647461 9.31640625 0.55664062 C12.64448041 0.76666472 15.80255402 1.01934002 19 2 C18.67 3.32 18.34 4.64 18 6 C17.67 5.34 17.34 4.68 17 4 C15.700625 4.061875 15.700625 4.061875 14.375 4.125 C10.84133629 3.99412357 8.30733791 3.19627116 5 2 C3.33911955 1.63893903 1.67381019 1.29537827 0 1 C0 0.67 0 0.34 0 0 Z " fill="#8F90AC" transform="translate(249,166)"/>
<path d="M0 0 C-1.32 0.33 -2.64 0.66 -4 1 C-3.67 1.99 -3.34 2.98 -3 4 C-3.99 5.485 -3.99 5.485 -5 7 C-5.2165625 8.051875 -5.2165625 8.051875 -5.4375 9.125 C-5.623125 9.74375 -5.80875 10.3625 -6 11 C-6.99 11.33 -7.98 11.66 -9 12 C-8.835 11.236875 -8.67 10.47375 -8.5 9.6875 C-7.90854604 6.96403764 -7.90854604 6.96403764 -8 4 C-7.25 1.875 -7.25 1.875 -6 0 C-3.40292416 -1.05506206 -2.5386068 -1.2693034 0 0 Z " fill="#DAD9E4" transform="translate(164,132)"/>
<path d="M0 0 C0 0.66 0 1.32 0 2 C-2.70716242 2.90238747 -4.23776768 3.11851302 -7.01171875 3.09765625 C-8.14770508 3.09282227 -8.14770508 3.09282227 -9.30664062 3.08789062 C-10.09232422 3.07951172 -10.87800781 3.07113281 -11.6875 3.0625 C-12.48478516 3.05798828 -13.28207031 3.05347656 -14.10351562 3.04882812 C-16.06904257 3.0370585 -18.03453085 3.01912348 -20 3 C-20 2.67 -20 2.34 -20 2 C-17.60468244 1.66254646 -15.20885732 1.3299171 -12.8125 1 C-11.80219727 0.85691406 -11.80219727 0.85691406 -10.77148438 0.7109375 C-7.15335423 0.21675387 -3.65203599 -0.11346131 0 0 Z " fill="#525B55" transform="translate(289,232)"/>
<path d="M0 0 C3.3 0.99 6.6 1.98 10 3 C4.21128901 6.85914066 -0.19672424 7.26679513 -7 7 C-7 6.67 -7 6.34 -7 6 C-3.92382812 5.70703125 -3.92382812 5.70703125 -0.84765625 5.4140625 C-0.23792969 5.27742187 0.37179688 5.14078125 1 5 C1.33 4.34 1.66 3.68 2 3 C1.34 2.67 0.68 2.34 0 2 C0 1.34 0 0.68 0 0 Z " fill="#D39A98" transform="translate(142,197)"/>
<path d="M0 0 C0 0.66 0 1.32 0 2 C-1.2375 2.433125 -2.475 2.86625 -3.75 3.3125 C-6.33955985 4.26702912 -8.08961593 5.06781746 -10.3125 6.75 C-10.869375 7.1625 -11.42625 7.575 -12 8 C-12.99 7.67 -13.98 7.34 -15 7 C-5.9375 -0.50892857 -5.9375 -0.50892857 0 0 Z " fill="#B3B9A9" transform="translate(216,209)"/>
<path d="M0 0 C0.33 1.32 0.66 2.64 1 4 C-0.41042956 4.84384675 -1.82864132 5.67469496 -3.25 6.5 C-4.43335938 7.19609375 -4.43335938 7.19609375 -5.640625 7.90625 C-8 9 -8 9 -12 9 C-12 8.34 -12 7.68 -12 7 C-10.865625 6.71125 -9.73125 6.4225 -8.5625 6.125 C-7.386875 5.75375 -6.21125 5.3825 -5 5 C-4.67 4.34 -4.34 3.68 -4 3 C-3.01 3 -2.02 3 -1 3 C-0.67 2.01 -0.34 1.02 0 0 Z " fill="#353675" transform="translate(145,180)"/>
<path d="M0 0 C1.32 0 2.64 0 4 0 C3.5020163 3.73487777 3.12508244 5.81237635 1 9 C0.01 8.01 -0.98 7.02 -2 6 C-1.34 4.02 -0.68 2.04 0 0 Z M-4 6 C-3.01 6.495 -3.01 6.495 -2 7 C-2.99 7.495 -2.99 7.495 -4 8 C-4 7.34 -4 6.68 -4 6 Z " fill="#5F6591" transform="translate(146,143)"/>
<path d="M0 0 C0.66 0 1.32 0 2 0 C1.0548703 6.42688195 -1.82929173 11.1102041 -6 16 C-6.66 15.67 -7.32 15.34 -8 15 C-7.67 14.01 -7.34 13.02 -7 12 C-6.34 12 -5.68 12 -5 12 C-5 11.34 -5 10.68 -5 10 C-4.34 9.67 -3.68 9.34 -3 9 C-2.66073053 6.66752239 -2.32759934 4.33414529 -2 2 C-1.34 1.34 -0.68 0.68 0 0 Z " fill="#BBB1CE" transform="translate(214,192)"/>
<path d="M0 0 C1.56073255 2.34109882 2.86373867 4.56333403 4.125 7.0625 C4.47820312 7.75472656 4.83140625 8.44695312 5.1953125 9.16015625 C6 11 6 11 6 13 C4.68 13 3.36 13 2 13 C0.24252386 8.49646738 -0.19294408 4.82360189 0 0 Z " fill="#6F61AB" transform="translate(64,181)"/>
<path d="M0 0 C0.33 0 0.66 0 1 0 C1 1.65 1 3.3 1 5 C1.99 5 2.98 5 4 5 C4.33 6.32 4.66 7.64 5 9 C3.68 9.33 2.36 9.66 1 10 C-0.06652192 7.69631264 -1.06421005 5.35981813 -2 3 C-1 1 -1 1 0 0 Z " fill="#A27366" transform="translate(279,175)"/>
<path d="M0 0 C0.33 0.66 0.66 1.32 1 2 C1.66 2 2.32 2 3 2 C3.33 1.34 3.66 0.68 4 0 C8.29 0.33 12.58 0.66 17 1 C17 1.33 17 1.66 17 2 C15.10507994 2.33848652 13.20901534 2.67056911 11.3125 3 C10.25675781 3.185625 9.20101562 3.37125 8.11328125 3.5625 C5.35095938 3.95068074 2.78257957 4.08259976 0 4 C0 2.68 0 1.36 0 0 Z " fill="#6C4E96" transform="translate(67,192)"/>
<path d="M0 0 C1.21236328 0.02707031 1.21236328 0.02707031 2.44921875 0.0546875 C3.37154297 0.08949219 3.37154297 0.08949219 4.3125 0.125 C4.3125 1.45833333 4.3125 2.79166667 4.3125 4.125 C2.68786158 4.17895478 1.06271459 4.21777195 -0.5625 4.25 C-1.46742188 4.27320313 -2.37234375 4.29640625 -3.3046875 4.3203125 C-5.6875 4.125 -5.6875 4.125 -7.6875 2.125 C-4.48369983 -0.01086678 -3.66810033 -0.10632175 0 0 Z " fill="#7C71A0" transform="translate(303.6875,184.875)"/>
<path d="M0 0 C2.80641195 2.45561045 3.93578671 4.27382327 4.265625 8.00390625 C4.25142274 11.01123516 4.17237569 13.99779002 4 17 C3.34 16.67 2.68 16.34 2 16 C1.62109375 13.92578125 1.62109375 13.92578125 1.4375 11.3125 C1.13073473 7.49436792 0.69471053 3.77128572 0 0 Z " fill="#36497E" transform="translate(238,168)"/>
<path d="M0 0 C1.95803507 -0.05389087 3.91648909 -0.09274217 5.875 -0.125 C7.51082031 -0.15980469 7.51082031 -0.15980469 9.1796875 -0.1953125 C12 0 12 0 14 2 C12.68 4.31 11.36 6.62 10 9 C8.91825838 5.63458162 9.07461831 4.70152678 10 1 C6.7 1 3.4 1 0 1 C0 0.67 0 0.34 0 0 Z " fill="#DAD4E2" transform="translate(56,148)"/>
<path d="M0 0 C0 0.66 0 1.32 0 2 C-1.56116819 2.33951619 -3.12401338 2.67132544 -4.6875 3 C-5.99267578 3.2784375 -5.99267578 3.2784375 -7.32421875 3.5625 C-9.93712964 3.98972047 -12.35813038 4.07616201 -15 4 C-14.34 3.67 -13.68 3.34 -13 3 C-13 2.34 -13 1.68 -13 1 C-11.20843648 0.83222817 -9.4167455 0.66581706 -7.625 0.5 C-6.62726563 0.4071875 -5.62953125 0.314375 -4.6015625 0.21875 C-2 0 -2 0 0 0 Z " fill="#824363" transform="translate(154,231)"/>
<path d="M0 0 C3.3 0 6.6 0 10 0 C8.515 2.475 8.515 2.475 7 5 C7.66 5 8.32 5 9 5 C8.67 6.32 8.34 7.64 8 9 C7.67386719 8.51789063 7.34773438 8.03578125 7.01171875 7.5390625 C6.57472656 6.90742188 6.13773437 6.27578125 5.6875 5.625 C5.25824219 4.99851563 4.82898438 4.37203125 4.38671875 3.7265625 C2.93079661 1.73621155 2.93079661 1.73621155 0 0 Z " fill="#D7CBC9" transform="translate(280,143)"/>
<path d="M0 0 C5.45479185 0.56820748 9.91059256 1.94637945 15 4 C15 4.33 15 4.66 15 5 C9.33557626 4.63495936 4.99296295 3.9445679 0 1 C0 0.67 0 0.34 0 0 Z " fill="#906281" transform="translate(63,231)"/>
<path d="M0 0 C0.66 0 1.32 0 2 0 C0.99749943 2.58482579 0.35600992 3.7872047 -2.05859375 5.23046875 C-2.84363281 5.54628906 -3.62867188 5.86210937 -4.4375 6.1875 C-5.61119141 6.67283203 -5.61119141 6.67283203 -6.80859375 7.16796875 C-8.52416128 7.81933396 -10.25910835 8.41970278 -12 9 C-12.66 8.34 -13.32 7.68 -14 7 C-10.73406893 5.24754918 -7.77060563 3.93607042 -4.1875 2.9375 C-3.135625 2.628125 -2.08375 2.31875 -1 2 C-0.67 1.34 -0.34 0.68 0 0 Z " fill="#8E8A9E" transform="translate(217,204)"/>
<path d="M0 0 C2.22112487 4.44224974 2.60616437 7.11643817 3 12 C2.67 12.66 2.34 13.32 2 14 C1.34 14 0.68 14 0 14 C0 9.38 0 4.76 0 0 Z " fill="#B097BC" transform="translate(291,162)"/>
<path d="M0 0 C3.3 0 6.6 0 10 0 C10 0.99 10 1.98 10 3 C10.99 3.33 11.98 3.66 13 4 C8.30976546 3.43393721 3.65499974 2.81462495 -1 2 C-0.67 1.34 -0.34 0.68 0 0 Z " fill="#DCC792" transform="translate(235,160)"/>
<path d="M0 0 C0.33 0.66 0.66 1.32 1 2 C1.66 2 2.32 2 3 2 C2.375 3.875 2.375 3.875 1 6 C-2.125 7.25 -2.125 7.25 -5 8 C-3.8141763 4.62496331 -2.72426311 2.35277269 0 0 Z " fill="#A5B0CA" transform="translate(103,124)"/>
<path d="M0 0 C-0.33 1.65 -0.66 3.3 -1 5 C-1.804375 5.12375 -2.60875 5.2475 -3.4375 5.375 C-4.7059375 5.684375 -4.7059375 5.684375 -6 6 C-6.33 6.66 -6.66 7.32 -7 8 C-6.44414399 4.1090079 -4.34122117 0 0 0 Z " fill="#5961A4" transform="translate(146,176)"/>
<path d="M0 0 C4 4 4 4 5 7 C4.34 7 3.68 7 3 7 C3 8.98 3 10.96 3 13 C2.01 12.67 1.02 12.34 0 12 C0 8.04 0 4.08 0 0 Z " fill="#CDC0C8" transform="translate(224,144)"/>
<path d="M0 0 C2.4375 0.8125 2.4375 0.8125 5 2 C5.33 2.99 5.66 3.98 6 5 C6.66 5.33 7.32 5.66 8 6 C8 6.66 8 7.32 8 8 C5.13275314 7.42655063 4.1385485 7.1385485 2 5 C2 4.01 2 3.02 2 2 C1.34 2 0.68 2 0 2 C0 1.34 0 0.68 0 0 Z " fill="#B68F93" transform="translate(150,197)"/>
<path d="M0 0 C2.88437779 1.29299694 4.87219421 2.65941363 7 5 C6.67 5.66 6.34 6.32 6 7 C3.36 5.68 0.72 4.36 -2 3 C-1 1 -1 1 0 0 Z " fill="#9095B1" transform="translate(147,121)"/>
<path d="M0 0 C0.33 0.66 0.66 1.32 1 2 C2.0209375 1.7834375 2.0209375 1.7834375 3.0625 1.5625 C6.36273082 0.93054091 9.67144426 0.45686059 13 0 C11.41907316 3.16185368 9.23325243 3.77990474 6 5 C2.625 4.1875 2.625 4.1875 0 3 C0 2.01 0 1.02 0 0 Z " fill="#D5969C" transform="translate(83,204)"/>
<path d="M0 0 C0.99 0.33 1.98 0.66 3 1 C5.63804589 0.60602665 5.63804589 0.60602665 8 0 C6.38405168 2.04119788 4.7143618 4.04072937 3 6 C2.34 6 1.68 6 1 6 C1 5.01 1 4.02 1 3 C0.34 3 -0.32 3 -1 3 C-0.67 2.01 -0.34 1.02 0 0 Z " fill="#D5ABB5" transform="translate(58,200)"/>
<path d="M0 0 C6.625 -0.25 6.625 -0.25 10 2 C9 3 9 3 6.71484375 3.09765625 C5.34005859 3.08025391 5.34005859 3.08025391 3.9375 3.0625 C3.01839844 3.05347656 2.09929687 3.04445312 1.15234375 3.03515625 C0.44207031 3.02355469 -0.26820313 3.01195312 -1 3 C-0.67 2.01 -0.34 1.02 0 0 Z " fill="#434EA0" transform="translate(247,199)"/>
<path d="M0 0 C0.99 0.33 1.98 0.66 3 1 C1.7315625 1.8353125 1.7315625 1.8353125 0.4375 2.6875 C-3.10127989 5.04387134 -6.54991268 7.51593713 -10 10 C-8.58768539 6.64117925 -6.96631022 4.86670953 -4.0625 2.6875 C-3.37285156 2.15511719 -2.68320312 1.62273437 -1.97265625 1.07421875 C-1.32167969 0.71972656 -0.67070313 0.36523438 0 0 Z " fill="#F3F0F4" transform="translate(37,148)"/>
<path d="M0 0 C0 0.99 0 1.98 0 3 C-6.625 4 -6.625 4 -10 4 C-6.58908673 0.88145073 -4.68377325 -0.53528837 0 0 Z " fill="#E2D1B3" transform="translate(239,143)"/>
<path d="M0 0 C1.4606285 2.64738916 2 3.89448334 2 7 C0.35 6.67 -1.3 6.34 -3 6 C-2.625 3.5625 -2.625 3.5625 -2 1 C-1.34 0.67 -0.68 0.34 0 0 Z " fill="#ADA1D8" transform="translate(64,188)"/>
<path d="M0 0 C0.33 0 0.66 0 1 0 C1 2.97 1 5.94 1 9 C-0.32 8.67 -1.64 8.34 -3 8 C-2.45276317 4.62537285 -1.9451 2.91765 0 0 Z " fill="#9689B0" transform="translate(70,149)"/>
<path d="M0 0 C0.99 0.99 1.98 1.98 3 3 C1.02 5.64 -0.96 8.28 -3 11 C-3.33 10.34 -3.66 9.68 -4 9 C-3.22265625 7.34375 -3.22265625 7.34375 -2.0625 5.5 C-0.38188448 2.94651908 -0.38188448 2.94651908 0 0 Z " fill="#575A7C" transform="translate(155,131)"/>
<path d="M0 0 C0.33 0 0.66 0 1 0 C1 3.96 1 7.92 1 12 C0.01 12.495 0.01 12.495 -1 13 C-2.0070238 7.96488101 -1.97387813 4.76052962 0 0 Z " fill="#AFB1B6" transform="translate(290,218)"/>
<path d="M0 0 C0.66 0.33 1.32 0.66 2 1 C2 2.98 2 4.96 2 7 C0.68 7 -0.64 7 -2 7 C-2 6.34 -2 5.68 -2 5 C-2.99 4.67 -3.98 4.34 -5 4 C-4.01 3.67 -3.02 3.34 -2 3 C-1.34 3.33 -0.68 3.66 0 4 C0 2.68 0 1.36 0 0 Z " fill="#95A975" transform="translate(254,212)"/>
<path d="M0 0 C1.98 0.66 3.96 1.32 6 2 C6 2.99 6 3.98 6 5 C3.36 5 0.72 5 -2 5 C-1.01 4.67 -0.02 4.34 1 4 C0.67 2.68 0.34 1.36 0 0 Z " fill="#94A37D" transform="translate(280,212)"/>
<path d="M0 0 C0.99 0.33 1.98 0.66 3 1 C2.67 2.65 2.34 4.3 2 6 C0.68 6 -0.64 6 -2 6 C-2 4.68 -2 3.36 -2 2 C-1.34 2 -0.68 2 0 2 C0 1.34 0 0.68 0 0 Z " fill="#67649F" transform="translate(271,198)"/>
<path d="M0 0 C0.33 0.66 0.66 1.32 1 2 C3.64 1.67 6.28 1.34 9 1 C9 1.66 9 2.32 9 3 C5.7 3.33 2.4 3.66 -1 4 C-0.67 2.68 -0.34 1.36 0 0 Z " fill="#E4DCEB" transform="translate(131,190)"/>
<path d="M0 0 C0.66 0 1.32 0 2 0 C2 0.66 2 1.32 2 2 C2.66 2 3.32 2 4 2 C4 3.98 4 5.96 4 8 C2 6.8125 2 6.8125 0 5 C-0.25 2.3125 -0.25 2.3125 0 0 Z " fill="#C5BBDB" transform="translate(60,182)"/>
<path d="M0 0 C0.33 0 0.66 0 1 0 C2.42857143 8.57142857 2.42857143 8.57142857 0 12 C-0.33 12 -0.66 12 -1 12 C-1.02712066 10.56260487 -1.04645067 9.12506137 -1.0625 7.6875 C-1.07410156 6.88699219 -1.08570312 6.08648437 -1.09765625 5.26171875 C-1 3 -1 3 0 0 Z " fill="#B2A4D2" transform="translate(87,160)"/>
<path d="M0 0 C2.475 0.495 2.475 0.495 5 1 C5.33 2.32 5.66 3.64 6 5 C4.35 4.67 2.7 4.34 1 4 C0.67 2.68 0.34 1.36 0 0 Z " fill="#CEC8CF" transform="translate(201,127)"/>
<path d="M0 0 C1.98 0 3.96 0 6 0 C6 0.66 6 1.32 6 2 C3.00519083 2.8723412 0.36424089 3.10829766 -2.75 3.0625 C-3.54921875 3.05347656 -4.3484375 3.04445312 -5.171875 3.03515625 C-5.77515625 3.02355469 -6.3784375 3.01195312 -7 3 C-7 2.67 -7 2.34 -7 2 C-4.69 2 -2.38 2 0 2 C0 1.34 0 0.68 0 0 Z " fill="#A8BF8F" transform="translate(224,218)"/>
<path d="M0 0 C1.65 0.33 3.3 0.66 5 1 C0.73688282 5.12989477 -2.28758534 5.61271765 -8 6 C-5.35261084 4.5393715 -4.10551666 4 -1 4 C-0.67 2.68 -0.34 1.36 0 0 Z " fill="#AEB890" transform="translate(217,207)"/>
<path d="M0 0 C0.99 0.66 1.98 1.32 3 2 C2.34 3.65 1.68 5.3 1 7 C0.01 6.67 -0.98 6.34 -2 6 C-2 4.68 -2 3.36 -2 2 C-1.34 2 -0.68 2 0 2 C0 1.34 0 0.68 0 0 Z " fill="#797DA5" transform="translate(154,128)"/>
<path d="M0 0 C1.485 0.99 1.485 0.99 3 2 C2.67 4.64 2.34 7.28 2 10 C1.01 9.01 0.02 8.02 -1 7 C-0.34 7 0.32 7 1 7 C0.67 4.69 0.34 2.38 0 0 Z " fill="#829866" transform="translate(255,213)"/>
<path d="M0 0 C2.31 0.66 4.62 1.32 7 2 C6.01 2.99 5.02 3.98 4 5 C1 4 1 4 -1 3 C-0.67 2.01 -0.34 1.02 0 0 Z " fill="#C8C3D6" transform="translate(171,208)"/>
<path d="M0 0 C-0.66 1.32 -1.32 2.64 -2 4 C-3.65 4 -5.3 4 -7 4 C-6.67 3.01 -6.34 2.02 -6 1 C-3 0 -3 0 0 0 Z " fill="#D29D9F" transform="translate(137,196)"/>
<path d="M0 0 C3.71888239 0.50712033 6.73454239 1.11608215 10 3 C9.01 3.66 8.02 4.32 7 5 C5.68 4.34 4.36 3.68 3 3 C3 2.34 3 1.68 3 1 C2.01 0.67 1.02 0.34 0 0 Z " fill="#ACB2C4" transform="translate(137,117)"/>
<path d="M0 0 C2.475 0.495 2.475 0.495 5 1 C5.1875 3.375 5.1875 3.375 5 6 C4.01 6.66 3.02 7.32 2 8 C2 5.69 2 3.38 2 1 C1.34 0.67 0.68 0.34 0 0 Z " fill="#9AA986" transform="translate(201,217)"/>
<path d="M0 0 C0 1.98 0 3.96 0 6 C-1.32 6.33 -2.64 6.66 -4 7 C-3.625 4.0625 -3.625 4.0625 -3 1 C-1 0 -1 0 0 0 Z " fill="#D8D5E0" transform="translate(160,195)"/>
<path d="M0 0 C0.33 0 0.66 0 1 0 C0.67 2.31 0.34 4.62 0 7 C-1.32 7.33 -2.64 7.66 -4 8 C-4 7.01 -4 6.02 -4 5 C-3.34 4.67 -2.68 4.34 -2 4 C-0.86649466 1.98330173 -0.86649466 1.98330173 0 0 Z " fill="#5549A6" transform="translate(133,181)"/>
<path d="M0 0 C0.99 0.33 1.98 0.66 3 1 C2.67 1.99 2.34 2.98 2 4 C1.34 4 0.68 4 0 4 C0 6.31 0 8.62 0 11 C-0.33 11 -0.66 11 -1 11 C-1.0270043 9.54176788 -1.04639787 8.08339325 -1.0625 6.625 C-1.07410156 5.81289062 -1.08570313 5.00078125 -1.09765625 4.1640625 C-1 2 -1 2 0 0 Z " fill="#7386B5" transform="translate(245,176)"/>
<path d="M0 0 C0.66 0 1.32 0 2 0 C2.33 1.65 2.66 3.3 3 5 C3.66 5 4.32 5 5 5 C4.67 6.65 4.34 8.3 4 10 C1.04816899 7.04816899 0.91336012 4.04488053 0 0 Z " fill="#C8B4B9" transform="translate(288,152)"/>
<path d="M0 0 C0.66 1.32 1.32 2.64 2 4 C0.1875 5.0625 0.1875 5.0625 -2 6 C-2.99 5.67 -3.98 5.34 -5 5 C-5 4.34 -5 3.68 -5 3 C-3.68 3 -2.36 3 -1 3 C-0.67 2.01 -0.34 1.02 0 0 Z " fill="#8B85AE" transform="translate(94,144)"/>
<path d="M0 0 C0 0.33 0 0.66 0 1 C-1.65 1 -3.3 1 -5 1 C-5 1.99 -5 2.98 -5 4 C-5.99 4.33 -6.98 4.66 -8 5 C-8 4.01 -8 3.02 -8 2 C-8.66 1.67 -9.32 1.34 -10 1 C-6.61981469 -0.04005702 -3.5219721 -0.08004482 0 0 Z " fill="#9BB186" transform="translate(232,220)"/>
<path d="M0 0 C3 0.25 3 0.25 5 2.25 C1.30458414 3.20024979 -1.30458414 3.20024979 -5 2.25 C-3 0.25 -3 0.25 0 0 Z " fill="#BE8EAF" transform="translate(117,193.75)"/>
<path d="M0 0 C0.66 0.66 1.32 1.32 2 2 C4.58354218 2.16687448 4.58354218 2.16687448 7 2 C7 2.99 7 3.98 7 5 C5.02 5 3.04 5 1 5 C0.67 3.35 0.34 1.7 0 0 Z " fill="#886170" transform="translate(278,182)"/>
<path d="M0 0 C2.96175123 0.61277612 4.38058783 1.25372522 7 3 C7.6875 5.625 7.6875 5.625 8 8 C5.33333333 5.33333333 2.66666667 2.66666667 0 0 Z " fill="#A38C82" transform="translate(269,167)"/>
<path d="M0 0 C2.97 0 5.94 0 9 0 C8.67 1.32 8.34 2.64 8 4 C7.67 3.34 7.34 2.68 7 2 C5.02 2 3.04 2 1 2 C0.67 1.34 0.34 0.68 0 0 Z " fill="#848BB3" transform="translate(259,168)"/>
<path d="M0 0 C0 0.66 0 1.32 0 2 C-2.64 2 -5.28 2 -8 2 C-8 1.34 -8 0.68 -8 0 C-5.13822943 -1.43088528 -3.06624227 -0.59991697 0 0 Z " fill="#BC9D77" transform="translate(264,163)"/>
<path d="M0 0 C0.33 0.99 0.66 1.98 1 3 C-0.25 5.1875 -0.25 5.1875 -2 7 C-2.99 7 -3.98 7 -5 7 C-5 6.01 -5 5.02 -5 4 C-3.68 4 -2.36 4 -1 4 C-0.67 2.68 -0.34 1.36 0 0 Z " fill="#60609F" transform="translate(133,153)"/>
<path d="M0 0 C2.875 -0.1875 2.875 -0.1875 6 0 C6.66 0.99 7.32 1.98 8 3 C5.03 2.67 2.06 2.34 -1 2 C-0.67 1.34 -0.34 0.68 0 0 Z " fill="#6A4997" transform="translate(109,191)"/>
<path d="M0 0 C0.99 0.33 1.98 0.66 3 1 C0.36 2.98 -2.28 4.96 -5 7 C-4 3 -4 3 -2.125 1.1875 C-1.42375 0.795625 -0.7225 0.40375 0 0 Z " fill="#D9BE86" transform="translate(236,146)"/>
</svg>
